<mxfile host="Electron" modified="2024-04-05T05:27:12.448Z" agent="Mozilla/5.0 (Windows NT 10.0; Win64; x64) AppleWebKit/537.36 (KHTML, like Gecko) draw.io/24.1.0 Chrome/120.0.6099.109 Electron/28.1.0 Safari/537.36" etag="5IsKa-hFxas-ACOyzfB7" version="24.1.0" type="device">
  <diagram id="C5RBs43oDa-KdzZeNtuy" name="Page-1">
    <mxGraphModel dx="1760" dy="2285" grid="1" gridSize="10" guides="1" tooltips="1" connect="1" arrows="1" fold="1" page="1" pageScale="1" pageWidth="827" pageHeight="1169" math="0" shadow="0">
      <root>
        <mxCell id="WIyWlLk6GJQsqaUBKTNV-0" />
        <mxCell id="WIyWlLk6GJQsqaUBKTNV-1" parent="WIyWlLk6GJQsqaUBKTNV-0" />
        <mxCell id="zkfFHV4jXpPFQw0GAbJ--0" value="Fabricante" style="swimlane;fontStyle=2;align=center;verticalAlign=top;childLayout=stackLayout;horizontal=1;startSize=26;horizontalStack=0;resizeParent=1;resizeLast=0;collapsible=1;marginBottom=0;rounded=0;shadow=0;strokeWidth=1;" parent="WIyWlLk6GJQsqaUBKTNV-1" vertex="1">
          <mxGeometry x="160" y="120" width="160" height="190" as="geometry">
            <mxRectangle x="230" y="140" width="160" height="26" as="alternateBounds" />
          </mxGeometry>
        </mxCell>
        <mxCell id="zkfFHV4jXpPFQw0GAbJ--1" value="+ Identificador:int" style="text;align=left;verticalAlign=top;spacingLeft=4;spacingRight=4;overflow=hidden;rotatable=0;points=[[0,0.5],[1,0.5]];portConstraint=eastwest;" parent="zkfFHV4jXpPFQw0GAbJ--0" vertex="1">
          <mxGeometry y="26" width="160" height="26" as="geometry" />
        </mxCell>
        <mxCell id="zkfFHV4jXpPFQw0GAbJ--2" value="+Nombre:string" style="text;align=left;verticalAlign=top;spacingLeft=4;spacingRight=4;overflow=hidden;rotatable=0;points=[[0,0.5],[1,0.5]];portConstraint=eastwest;rounded=0;shadow=0;html=0;" parent="zkfFHV4jXpPFQw0GAbJ--0" vertex="1">
          <mxGeometry y="52" width="160" height="26" as="geometry" />
        </mxCell>
        <mxCell id="zkfFHV4jXpPFQw0GAbJ--4" value="" style="line;html=1;strokeWidth=1;align=left;verticalAlign=middle;spacingTop=-1;spacingLeft=3;spacingRight=3;rotatable=0;labelPosition=right;points=[];portConstraint=eastwest;" parent="zkfFHV4jXpPFQw0GAbJ--0" vertex="1">
          <mxGeometry y="78" width="160" height="8" as="geometry" />
        </mxCell>
        <mxCell id="zkfFHV4jXpPFQw0GAbJ--5" value="+ Crear()" style="text;align=left;verticalAlign=top;spacingLeft=4;spacingRight=4;overflow=hidden;rotatable=0;points=[[0,0.5],[1,0.5]];portConstraint=eastwest;" parent="zkfFHV4jXpPFQw0GAbJ--0" vertex="1">
          <mxGeometry y="86" width="160" height="26" as="geometry" />
        </mxCell>
        <mxCell id="sSFZgSlaCG-7Qj_c84nv-2" value="+ Consultar()" style="text;align=left;verticalAlign=top;spacingLeft=4;spacingRight=4;overflow=hidden;rotatable=0;points=[[0,0.5],[1,0.5]];portConstraint=eastwest;" vertex="1" parent="zkfFHV4jXpPFQw0GAbJ--0">
          <mxGeometry y="112" width="160" height="26" as="geometry" />
        </mxCell>
        <mxCell id="sSFZgSlaCG-7Qj_c84nv-1" value="+ Modificar()" style="text;align=left;verticalAlign=top;spacingLeft=4;spacingRight=4;overflow=hidden;rotatable=0;points=[[0,0.5],[1,0.5]];portConstraint=eastwest;" vertex="1" parent="zkfFHV4jXpPFQw0GAbJ--0">
          <mxGeometry y="138" width="160" height="26" as="geometry" />
        </mxCell>
        <mxCell id="sSFZgSlaCG-7Qj_c84nv-3" value="+ Eliminar()" style="text;align=left;verticalAlign=top;spacingLeft=4;spacingRight=4;overflow=hidden;rotatable=0;points=[[0,0.5],[1,0.5]];portConstraint=eastwest;" vertex="1" parent="zkfFHV4jXpPFQw0GAbJ--0">
          <mxGeometry y="164" width="160" height="26" as="geometry" />
        </mxCell>
        <mxCell id="sSFZgSlaCG-7Qj_c84nv-21" style="edgeStyle=orthogonalEdgeStyle;rounded=0;orthogonalLoop=1;jettySize=auto;html=1;entryX=0.5;entryY=1;entryDx=0;entryDy=0;endArrow=none;endFill=0;" edge="1" parent="WIyWlLk6GJQsqaUBKTNV-1" source="zkfFHV4jXpPFQw0GAbJ--6" target="zkfFHV4jXpPFQw0GAbJ--13">
          <mxGeometry relative="1" as="geometry" />
        </mxCell>
        <mxCell id="zkfFHV4jXpPFQw0GAbJ--6" value="Producto" style="swimlane;fontStyle=0;align=center;verticalAlign=top;childLayout=stackLayout;horizontal=1;startSize=26;horizontalStack=0;resizeParent=1;resizeLast=0;collapsible=1;marginBottom=0;rounded=0;shadow=0;strokeWidth=1;" parent="WIyWlLk6GJQsqaUBKTNV-1" vertex="1">
          <mxGeometry x="800" y="120" width="160" height="200" as="geometry">
            <mxRectangle x="770" y="120" width="160" height="26" as="alternateBounds" />
          </mxGeometry>
        </mxCell>
        <mxCell id="zkfFHV4jXpPFQw0GAbJ--7" value="+ Identificador:int" style="text;align=left;verticalAlign=top;spacingLeft=4;spacingRight=4;overflow=hidden;rotatable=0;points=[[0,0.5],[1,0.5]];portConstraint=eastwest;" parent="zkfFHV4jXpPFQw0GAbJ--6" vertex="1">
          <mxGeometry y="26" width="160" height="26" as="geometry" />
        </mxCell>
        <mxCell id="zkfFHV4jXpPFQw0GAbJ--8" value="+ Nombre:string" style="text;align=left;verticalAlign=top;spacingLeft=4;spacingRight=4;overflow=hidden;rotatable=0;points=[[0,0.5],[1,0.5]];portConstraint=eastwest;rounded=0;shadow=0;html=0;" parent="zkfFHV4jXpPFQw0GAbJ--6" vertex="1">
          <mxGeometry y="52" width="160" height="26" as="geometry" />
        </mxCell>
        <mxCell id="sSFZgSlaCG-7Qj_c84nv-4" value="+ ProductoPorFabricante" style="text;align=left;verticalAlign=top;spacingLeft=4;spacingRight=4;overflow=hidden;rotatable=0;points=[[0,0.5],[1,0.5]];portConstraint=eastwest;rounded=0;shadow=0;html=0;" vertex="1" parent="zkfFHV4jXpPFQw0GAbJ--6">
          <mxGeometry y="78" width="160" height="26" as="geometry" />
        </mxCell>
        <mxCell id="sSFZgSlaCG-7Qj_c84nv-5" value="+ Categoria" style="text;align=left;verticalAlign=top;spacingLeft=4;spacingRight=4;overflow=hidden;rotatable=0;points=[[0,0.5],[1,0.5]];portConstraint=eastwest;rounded=0;shadow=0;html=0;" vertex="1" parent="zkfFHV4jXpPFQw0GAbJ--6">
          <mxGeometry y="104" width="160" height="26" as="geometry" />
        </mxCell>
        <mxCell id="zkfFHV4jXpPFQw0GAbJ--9" value="" style="line;html=1;strokeWidth=1;align=left;verticalAlign=middle;spacingTop=-1;spacingLeft=3;spacingRight=3;rotatable=0;labelPosition=right;points=[];portConstraint=eastwest;" parent="zkfFHV4jXpPFQw0GAbJ--6" vertex="1">
          <mxGeometry y="130" width="160" height="10" as="geometry" />
        </mxCell>
        <mxCell id="zkfFHV4jXpPFQw0GAbJ--13" value="Categoria" style="swimlane;fontStyle=0;align=center;verticalAlign=top;childLayout=stackLayout;horizontal=1;startSize=26;horizontalStack=0;resizeParent=1;resizeLast=0;collapsible=1;marginBottom=0;rounded=0;shadow=0;strokeWidth=1;" parent="WIyWlLk6GJQsqaUBKTNV-1" vertex="1">
          <mxGeometry x="800" y="-140" width="160" height="120" as="geometry">
            <mxRectangle x="340" y="380" width="170" height="26" as="alternateBounds" />
          </mxGeometry>
        </mxCell>
        <mxCell id="zkfFHV4jXpPFQw0GAbJ--14" value="+ Identificador:int" style="text;align=left;verticalAlign=top;spacingLeft=4;spacingRight=4;overflow=hidden;rotatable=0;points=[[0,0.5],[1,0.5]];portConstraint=eastwest;" parent="zkfFHV4jXpPFQw0GAbJ--13" vertex="1">
          <mxGeometry y="26" width="160" height="26" as="geometry" />
        </mxCell>
        <mxCell id="sSFZgSlaCG-7Qj_c84nv-7" value="+ Nombre:string" style="text;align=left;verticalAlign=top;spacingLeft=4;spacingRight=4;overflow=hidden;rotatable=0;points=[[0,0.5],[1,0.5]];portConstraint=eastwest;rounded=0;shadow=0;html=0;" vertex="1" parent="zkfFHV4jXpPFQw0GAbJ--13">
          <mxGeometry y="52" width="160" height="26" as="geometry" />
        </mxCell>
        <mxCell id="zkfFHV4jXpPFQw0GAbJ--15" value="" style="line;html=1;strokeWidth=1;align=left;verticalAlign=middle;spacingTop=-1;spacingLeft=3;spacingRight=3;rotatable=0;labelPosition=right;points=[];portConstraint=eastwest;" parent="zkfFHV4jXpPFQw0GAbJ--13" vertex="1">
          <mxGeometry y="78" width="160" height="12" as="geometry" />
        </mxCell>
        <mxCell id="zkfFHV4jXpPFQw0GAbJ--17" value="ProductosPorFabricante" style="swimlane;fontStyle=0;align=center;verticalAlign=top;childLayout=stackLayout;horizontal=1;startSize=26;horizontalStack=0;resizeParent=1;resizeLast=0;collapsible=1;marginBottom=0;rounded=0;shadow=0;strokeWidth=1;" parent="WIyWlLk6GJQsqaUBKTNV-1" vertex="1">
          <mxGeometry x="478.72" y="120" width="160" height="164" as="geometry">
            <mxRectangle x="550" y="140" width="160" height="26" as="alternateBounds" />
          </mxGeometry>
        </mxCell>
        <mxCell id="zkfFHV4jXpPFQw0GAbJ--18" value="+ Identificador:int" style="text;align=left;verticalAlign=top;spacingLeft=4;spacingRight=4;overflow=hidden;rotatable=0;points=[[0,0.5],[1,0.5]];portConstraint=eastwest;" parent="zkfFHV4jXpPFQw0GAbJ--17" vertex="1">
          <mxGeometry y="26" width="160" height="26" as="geometry" />
        </mxCell>
        <mxCell id="zkfFHV4jXpPFQw0GAbJ--19" value="+ Nombre:string" style="text;align=left;verticalAlign=top;spacingLeft=4;spacingRight=4;overflow=hidden;rotatable=0;points=[[0,0.5],[1,0.5]];portConstraint=eastwest;rounded=0;shadow=0;html=0;" parent="zkfFHV4jXpPFQw0GAbJ--17" vertex="1">
          <mxGeometry y="52" width="160" height="26" as="geometry" />
        </mxCell>
        <mxCell id="zkfFHV4jXpPFQw0GAbJ--20" value="+ Fabricante" style="text;align=left;verticalAlign=top;spacingLeft=4;spacingRight=4;overflow=hidden;rotatable=0;points=[[0,0.5],[1,0.5]];portConstraint=eastwest;rounded=0;shadow=0;html=0;" parent="zkfFHV4jXpPFQw0GAbJ--17" vertex="1">
          <mxGeometry y="78" width="160" height="26" as="geometry" />
        </mxCell>
        <mxCell id="zkfFHV4jXpPFQw0GAbJ--23" value="" style="line;html=1;strokeWidth=1;align=left;verticalAlign=middle;spacingTop=-1;spacingLeft=3;spacingRight=3;rotatable=0;labelPosition=right;points=[];portConstraint=eastwest;" parent="zkfFHV4jXpPFQw0GAbJ--17" vertex="1">
          <mxGeometry y="104" width="160" height="8" as="geometry" />
        </mxCell>
        <mxCell id="zkfFHV4jXpPFQw0GAbJ--26" value="" style="endArrow=none;shadow=0;strokeWidth=1;rounded=0;curved=0;endFill=0;edgeStyle=elbowEdgeStyle;elbow=vertical;" parent="WIyWlLk6GJQsqaUBKTNV-1" edge="1">
          <mxGeometry x="0.5" y="41" relative="1" as="geometry">
            <mxPoint x="320" y="200" as="sourcePoint" />
            <mxPoint x="478.72" y="200" as="targetPoint" />
            <mxPoint x="-40" y="32" as="offset" />
          </mxGeometry>
        </mxCell>
        <mxCell id="sSFZgSlaCG-7Qj_c84nv-8" value="&lt;span style=&quot;font-weight: normal;&quot;&gt;ProductoInventario&lt;/span&gt;" style="swimlane;fontStyle=1;align=center;verticalAlign=top;childLayout=stackLayout;horizontal=1;startSize=26;horizontalStack=0;resizeParent=1;resizeParentMax=0;resizeLast=0;collapsible=1;marginBottom=0;whiteSpace=wrap;html=1;" vertex="1" parent="WIyWlLk6GJQsqaUBKTNV-1">
          <mxGeometry x="1120" y="120" width="160" height="164" as="geometry">
            <mxRectangle x="1000" y="120" width="100" height="30" as="alternateBounds" />
          </mxGeometry>
        </mxCell>
        <mxCell id="sSFZgSlaCG-7Qj_c84nv-9" value="+ Identificador:int" style="text;strokeColor=none;fillColor=none;align=left;verticalAlign=top;spacingLeft=4;spacingRight=4;overflow=hidden;rotatable=0;points=[[0,0.5],[1,0.5]];portConstraint=eastwest;whiteSpace=wrap;html=1;" vertex="1" parent="sSFZgSlaCG-7Qj_c84nv-8">
          <mxGeometry y="26" width="160" height="26" as="geometry" />
        </mxCell>
        <mxCell id="sSFZgSlaCG-7Qj_c84nv-12" value="+ Producto" style="text;strokeColor=none;fillColor=none;align=left;verticalAlign=top;spacingLeft=4;spacingRight=4;overflow=hidden;rotatable=0;points=[[0,0.5],[1,0.5]];portConstraint=eastwest;whiteSpace=wrap;html=1;" vertex="1" parent="sSFZgSlaCG-7Qj_c84nv-8">
          <mxGeometry y="52" width="160" height="26" as="geometry" />
        </mxCell>
        <mxCell id="sSFZgSlaCG-7Qj_c84nv-28" value="+ CantidadProductos:int" style="text;strokeColor=none;fillColor=none;align=left;verticalAlign=top;spacingLeft=4;spacingRight=4;overflow=hidden;rotatable=0;points=[[0,0.5],[1,0.5]];portConstraint=eastwest;whiteSpace=wrap;html=1;" vertex="1" parent="sSFZgSlaCG-7Qj_c84nv-8">
          <mxGeometry y="78" width="160" height="26" as="geometry" />
        </mxCell>
        <mxCell id="sSFZgSlaCG-7Qj_c84nv-13" value="+ PrecioCompraU:double" style="text;strokeColor=none;fillColor=none;align=left;verticalAlign=top;spacingLeft=4;spacingRight=4;overflow=hidden;rotatable=0;points=[[0,0.5],[1,0.5]];portConstraint=eastwest;whiteSpace=wrap;html=1;" vertex="1" parent="sSFZgSlaCG-7Qj_c84nv-8">
          <mxGeometry y="104" width="160" height="26" as="geometry" />
        </mxCell>
        <mxCell id="sSFZgSlaCG-7Qj_c84nv-14" value="+ FechaCompra:date" style="text;strokeColor=none;fillColor=none;align=left;verticalAlign=top;spacingLeft=4;spacingRight=4;overflow=hidden;rotatable=0;points=[[0,0.5],[1,0.5]];portConstraint=eastwest;whiteSpace=wrap;html=1;" vertex="1" parent="sSFZgSlaCG-7Qj_c84nv-8">
          <mxGeometry y="130" width="160" height="26" as="geometry" />
        </mxCell>
        <mxCell id="sSFZgSlaCG-7Qj_c84nv-10" value="" style="line;strokeWidth=1;fillColor=none;align=left;verticalAlign=middle;spacingTop=-1;spacingLeft=3;spacingRight=3;rotatable=0;labelPosition=right;points=[];portConstraint=eastwest;strokeColor=inherit;" vertex="1" parent="sSFZgSlaCG-7Qj_c84nv-8">
          <mxGeometry y="156" width="160" height="8" as="geometry" />
        </mxCell>
        <mxCell id="sSFZgSlaCG-7Qj_c84nv-15" style="edgeStyle=orthogonalEdgeStyle;rounded=0;orthogonalLoop=1;jettySize=auto;html=1;entryX=0;entryY=0.5;entryDx=0;entryDy=0;endArrow=none;endFill=0;" edge="1" parent="WIyWlLk6GJQsqaUBKTNV-1" source="zkfFHV4jXpPFQw0GAbJ--20" target="sSFZgSlaCG-7Qj_c84nv-4">
          <mxGeometry relative="1" as="geometry">
            <Array as="points">
              <mxPoint x="800" y="200" />
            </Array>
          </mxGeometry>
        </mxCell>
        <mxCell id="sSFZgSlaCG-7Qj_c84nv-17" value="1" style="text;html=1;align=center;verticalAlign=middle;resizable=0;points=[];autosize=1;strokeColor=none;fillColor=none;" vertex="1" parent="WIyWlLk6GJQsqaUBKTNV-1">
          <mxGeometry x="770" y="200" width="30" height="30" as="geometry" />
        </mxCell>
        <mxCell id="sSFZgSlaCG-7Qj_c84nv-18" value="1..*" style="text;html=1;align=center;verticalAlign=middle;resizable=0;points=[];autosize=1;strokeColor=none;fillColor=none;" vertex="1" parent="WIyWlLk6GJQsqaUBKTNV-1">
          <mxGeometry x="638.72" y="170" width="40" height="30" as="geometry" />
        </mxCell>
        <mxCell id="sSFZgSlaCG-7Qj_c84nv-19" value="1..*" style="text;html=1;align=center;verticalAlign=middle;resizable=0;points=[];autosize=1;strokeColor=none;fillColor=none;" vertex="1" parent="WIyWlLk6GJQsqaUBKTNV-1">
          <mxGeometry x="438.72" y="200" width="40" height="30" as="geometry" />
        </mxCell>
        <mxCell id="sSFZgSlaCG-7Qj_c84nv-20" value="1" style="text;html=1;align=center;verticalAlign=middle;resizable=0;points=[];autosize=1;strokeColor=none;fillColor=none;" vertex="1" parent="WIyWlLk6GJQsqaUBKTNV-1">
          <mxGeometry x="320" y="170" width="30" height="30" as="geometry" />
        </mxCell>
        <mxCell id="sSFZgSlaCG-7Qj_c84nv-22" value="1..*" style="text;html=1;align=center;verticalAlign=middle;resizable=0;points=[];autosize=1;strokeColor=none;fillColor=none;" vertex="1" parent="WIyWlLk6GJQsqaUBKTNV-1">
          <mxGeometry x="880" y="90" width="40" height="30" as="geometry" />
        </mxCell>
        <mxCell id="sSFZgSlaCG-7Qj_c84nv-24" value="1" style="text;html=1;align=center;verticalAlign=middle;resizable=0;points=[];autosize=1;strokeColor=none;fillColor=none;" vertex="1" parent="WIyWlLk6GJQsqaUBKTNV-1">
          <mxGeometry x="840" y="-20" width="30" height="30" as="geometry" />
        </mxCell>
        <mxCell id="sSFZgSlaCG-7Qj_c84nv-25" style="edgeStyle=orthogonalEdgeStyle;rounded=0;orthogonalLoop=1;jettySize=auto;html=1;entryX=0;entryY=0.5;entryDx=0;entryDy=0;endArrow=none;endFill=0;" edge="1" parent="WIyWlLk6GJQsqaUBKTNV-1" source="sSFZgSlaCG-7Qj_c84nv-4" target="sSFZgSlaCG-7Qj_c84nv-13">
          <mxGeometry relative="1" as="geometry">
            <Array as="points">
              <mxPoint x="1120" y="211" />
            </Array>
          </mxGeometry>
        </mxCell>
        <mxCell id="sSFZgSlaCG-7Qj_c84nv-26" value="1" style="text;html=1;align=center;verticalAlign=middle;resizable=0;points=[];autosize=1;strokeColor=none;fillColor=none;" vertex="1" parent="WIyWlLk6GJQsqaUBKTNV-1">
          <mxGeometry x="960" y="180" width="30" height="30" as="geometry" />
        </mxCell>
        <mxCell id="sSFZgSlaCG-7Qj_c84nv-27" value="1..*" style="text;html=1;align=center;verticalAlign=middle;resizable=0;points=[];autosize=1;strokeColor=none;fillColor=none;" vertex="1" parent="WIyWlLk6GJQsqaUBKTNV-1">
          <mxGeometry x="1080" y="210" width="40" height="30" as="geometry" />
        </mxCell>
        <mxCell id="sSFZgSlaCG-7Qj_c84nv-47" style="edgeStyle=orthogonalEdgeStyle;rounded=0;orthogonalLoop=1;jettySize=auto;html=1;entryX=0.5;entryY=0;entryDx=0;entryDy=0;endArrow=none;endFill=0;" edge="1" parent="WIyWlLk6GJQsqaUBKTNV-1" source="sSFZgSlaCG-7Qj_c84nv-29" target="sSFZgSlaCG-7Qj_c84nv-37">
          <mxGeometry relative="1" as="geometry" />
        </mxCell>
        <mxCell id="sSFZgSlaCG-7Qj_c84nv-29" value="Inventario" style="swimlane;fontStyle=0;align=center;verticalAlign=top;childLayout=stackLayout;horizontal=1;startSize=26;horizontalStack=0;resizeParent=1;resizeLast=0;collapsible=1;marginBottom=0;rounded=0;shadow=0;strokeWidth=1;" vertex="1" parent="WIyWlLk6GJQsqaUBKTNV-1">
          <mxGeometry x="1440" y="120" width="160" height="170" as="geometry">
            <mxRectangle x="340" y="380" width="170" height="26" as="alternateBounds" />
          </mxGeometry>
        </mxCell>
        <mxCell id="sSFZgSlaCG-7Qj_c84nv-30" value="+ Identificador:int" style="text;align=left;verticalAlign=top;spacingLeft=4;spacingRight=4;overflow=hidden;rotatable=0;points=[[0,0.5],[1,0.5]];portConstraint=eastwest;" vertex="1" parent="sSFZgSlaCG-7Qj_c84nv-29">
          <mxGeometry y="26" width="160" height="26" as="geometry" />
        </mxCell>
        <mxCell id="sSFZgSlaCG-7Qj_c84nv-31" value="+ Nombre:string" style="text;align=left;verticalAlign=top;spacingLeft=4;spacingRight=4;overflow=hidden;rotatable=0;points=[[0,0.5],[1,0.5]];portConstraint=eastwest;rounded=0;shadow=0;html=0;" vertex="1" parent="sSFZgSlaCG-7Qj_c84nv-29">
          <mxGeometry y="52" width="160" height="26" as="geometry" />
        </mxCell>
        <mxCell id="sSFZgSlaCG-7Qj_c84nv-33" value="+ ProductoInventario" style="text;align=left;verticalAlign=top;spacingLeft=4;spacingRight=4;overflow=hidden;rotatable=0;points=[[0,0.5],[1,0.5]];portConstraint=eastwest;rounded=0;shadow=0;html=0;" vertex="1" parent="sSFZgSlaCG-7Qj_c84nv-29">
          <mxGeometry y="78" width="160" height="26" as="geometry" />
        </mxCell>
        <mxCell id="sSFZgSlaCG-7Qj_c84nv-32" value="" style="line;html=1;strokeWidth=1;align=left;verticalAlign=middle;spacingTop=-1;spacingLeft=3;spacingRight=3;rotatable=0;labelPosition=right;points=[];portConstraint=eastwest;" vertex="1" parent="sSFZgSlaCG-7Qj_c84nv-29">
          <mxGeometry y="104" width="160" height="12" as="geometry" />
        </mxCell>
        <mxCell id="sSFZgSlaCG-7Qj_c84nv-34" style="edgeStyle=orthogonalEdgeStyle;rounded=0;orthogonalLoop=1;jettySize=auto;html=1;endArrow=none;endFill=0;" edge="1" parent="WIyWlLk6GJQsqaUBKTNV-1" source="sSFZgSlaCG-7Qj_c84nv-28" target="sSFZgSlaCG-7Qj_c84nv-33">
          <mxGeometry relative="1" as="geometry" />
        </mxCell>
        <mxCell id="sSFZgSlaCG-7Qj_c84nv-35" value="1..*" style="text;html=1;align=center;verticalAlign=middle;resizable=0;points=[];autosize=1;strokeColor=none;fillColor=none;" vertex="1" parent="WIyWlLk6GJQsqaUBKTNV-1">
          <mxGeometry x="1280" y="180" width="40" height="30" as="geometry" />
        </mxCell>
        <mxCell id="sSFZgSlaCG-7Qj_c84nv-36" value="1" style="text;html=1;align=center;verticalAlign=middle;resizable=0;points=[];autosize=1;strokeColor=none;fillColor=none;" vertex="1" parent="WIyWlLk6GJQsqaUBKTNV-1">
          <mxGeometry x="1410" y="210" width="30" height="30" as="geometry" />
        </mxCell>
        <mxCell id="sSFZgSlaCG-7Qj_c84nv-166" style="edgeStyle=orthogonalEdgeStyle;rounded=0;orthogonalLoop=1;jettySize=auto;html=1;entryX=0.5;entryY=0;entryDx=0;entryDy=0;endArrow=none;endFill=0;" edge="1" parent="WIyWlLk6GJQsqaUBKTNV-1" source="sSFZgSlaCG-7Qj_c84nv-37" target="sSFZgSlaCG-7Qj_c84nv-126">
          <mxGeometry relative="1" as="geometry" />
        </mxCell>
        <mxCell id="sSFZgSlaCG-7Qj_c84nv-37" value="Sucursal" style="swimlane;fontStyle=0;align=center;verticalAlign=top;childLayout=stackLayout;horizontal=1;startSize=26;horizontalStack=0;resizeParent=1;resizeLast=0;collapsible=1;marginBottom=0;rounded=0;shadow=0;strokeWidth=1;" vertex="1" parent="WIyWlLk6GJQsqaUBKTNV-1">
          <mxGeometry x="1440" y="437" width="160" height="270" as="geometry">
            <mxRectangle x="340" y="380" width="170" height="26" as="alternateBounds" />
          </mxGeometry>
        </mxCell>
        <mxCell id="sSFZgSlaCG-7Qj_c84nv-38" value="+ Identificador:int" style="text;align=left;verticalAlign=top;spacingLeft=4;spacingRight=4;overflow=hidden;rotatable=0;points=[[0,0.5],[1,0.5]];portConstraint=eastwest;" vertex="1" parent="sSFZgSlaCG-7Qj_c84nv-37">
          <mxGeometry y="26" width="160" height="26" as="geometry" />
        </mxCell>
        <mxCell id="sSFZgSlaCG-7Qj_c84nv-39" value="+ Nombre:string" style="text;align=left;verticalAlign=top;spacingLeft=4;spacingRight=4;overflow=hidden;rotatable=0;points=[[0,0.5],[1,0.5]];portConstraint=eastwest;rounded=0;shadow=0;html=0;" vertex="1" parent="sSFZgSlaCG-7Qj_c84nv-37">
          <mxGeometry y="52" width="160" height="26" as="geometry" />
        </mxCell>
        <mxCell id="sSFZgSlaCG-7Qj_c84nv-45" value="+ CorreoElectronico:string" style="text;align=left;verticalAlign=top;spacingLeft=4;spacingRight=4;overflow=hidden;rotatable=0;points=[[0,0.5],[1,0.5]];portConstraint=eastwest;rounded=0;shadow=0;html=0;" vertex="1" parent="sSFZgSlaCG-7Qj_c84nv-37">
          <mxGeometry y="78" width="160" height="26" as="geometry" />
        </mxCell>
        <mxCell id="sSFZgSlaCG-7Qj_c84nv-46" value="+ Telefono:string" style="text;align=left;verticalAlign=top;spacingLeft=4;spacingRight=4;overflow=hidden;rotatable=0;points=[[0,0.5],[1,0.5]];portConstraint=eastwest;rounded=0;shadow=0;html=0;" vertex="1" parent="sSFZgSlaCG-7Qj_c84nv-37">
          <mxGeometry y="104" width="160" height="26" as="geometry" />
        </mxCell>
        <mxCell id="sSFZgSlaCG-7Qj_c84nv-40" value="+ Direccion:string" style="text;align=left;verticalAlign=top;spacingLeft=4;spacingRight=4;overflow=hidden;rotatable=0;points=[[0,0.5],[1,0.5]];portConstraint=eastwest;rounded=0;shadow=0;html=0;" vertex="1" parent="sSFZgSlaCG-7Qj_c84nv-37">
          <mxGeometry y="130" width="160" height="26" as="geometry" />
        </mxCell>
        <mxCell id="sSFZgSlaCG-7Qj_c84nv-42" value="+ Inventario" style="text;align=left;verticalAlign=top;spacingLeft=4;spacingRight=4;overflow=hidden;rotatable=0;points=[[0,0.5],[1,0.5]];portConstraint=eastwest;rounded=0;shadow=0;html=0;" vertex="1" parent="sSFZgSlaCG-7Qj_c84nv-37">
          <mxGeometry y="156" width="160" height="26" as="geometry" />
        </mxCell>
        <mxCell id="sSFZgSlaCG-7Qj_c84nv-43" value="+ Ciudad" style="text;align=left;verticalAlign=top;spacingLeft=4;spacingRight=4;overflow=hidden;rotatable=0;points=[[0,0.5],[1,0.5]];portConstraint=eastwest;rounded=0;shadow=0;html=0;" vertex="1" parent="sSFZgSlaCG-7Qj_c84nv-37">
          <mxGeometry y="182" width="160" height="26" as="geometry" />
        </mxCell>
        <mxCell id="sSFZgSlaCG-7Qj_c84nv-44" value="+ HorarioLaboral" style="text;align=left;verticalAlign=top;spacingLeft=4;spacingRight=4;overflow=hidden;rotatable=0;points=[[0,0.5],[1,0.5]];portConstraint=eastwest;rounded=0;shadow=0;html=0;" vertex="1" parent="sSFZgSlaCG-7Qj_c84nv-37">
          <mxGeometry y="208" width="160" height="26" as="geometry" />
        </mxCell>
        <mxCell id="sSFZgSlaCG-7Qj_c84nv-41" value="" style="line;html=1;strokeWidth=1;align=left;verticalAlign=middle;spacingTop=-1;spacingLeft=3;spacingRight=3;rotatable=0;labelPosition=right;points=[];portConstraint=eastwest;" vertex="1" parent="sSFZgSlaCG-7Qj_c84nv-37">
          <mxGeometry y="234" width="160" height="12" as="geometry" />
        </mxCell>
        <mxCell id="sSFZgSlaCG-7Qj_c84nv-48" value="1" style="text;html=1;align=center;verticalAlign=middle;resizable=0;points=[];autosize=1;strokeColor=none;fillColor=none;" vertex="1" parent="WIyWlLk6GJQsqaUBKTNV-1">
          <mxGeometry x="1520" y="290" width="30" height="30" as="geometry" />
        </mxCell>
        <mxCell id="sSFZgSlaCG-7Qj_c84nv-49" value="1" style="text;html=1;align=center;verticalAlign=middle;resizable=0;points=[];autosize=1;strokeColor=none;fillColor=none;" vertex="1" parent="WIyWlLk6GJQsqaUBKTNV-1">
          <mxGeometry x="1490" y="410" width="30" height="30" as="geometry" />
        </mxCell>
        <mxCell id="sSFZgSlaCG-7Qj_c84nv-50" value="Ciudad" style="swimlane;fontStyle=0;align=center;verticalAlign=top;childLayout=stackLayout;horizontal=1;startSize=26;horizontalStack=0;resizeParent=1;resizeLast=0;collapsible=1;marginBottom=0;rounded=0;shadow=0;strokeWidth=1;" vertex="1" parent="WIyWlLk6GJQsqaUBKTNV-1">
          <mxGeometry x="1800" y="120" width="160" height="170" as="geometry">
            <mxRectangle x="340" y="380" width="170" height="26" as="alternateBounds" />
          </mxGeometry>
        </mxCell>
        <mxCell id="sSFZgSlaCG-7Qj_c84nv-51" value="+ Identificador:int" style="text;align=left;verticalAlign=top;spacingLeft=4;spacingRight=4;overflow=hidden;rotatable=0;points=[[0,0.5],[1,0.5]];portConstraint=eastwest;" vertex="1" parent="sSFZgSlaCG-7Qj_c84nv-50">
          <mxGeometry y="26" width="160" height="26" as="geometry" />
        </mxCell>
        <mxCell id="sSFZgSlaCG-7Qj_c84nv-52" value="+ Nombre:string" style="text;align=left;verticalAlign=top;spacingLeft=4;spacingRight=4;overflow=hidden;rotatable=0;points=[[0,0.5],[1,0.5]];portConstraint=eastwest;rounded=0;shadow=0;html=0;" vertex="1" parent="sSFZgSlaCG-7Qj_c84nv-50">
          <mxGeometry y="52" width="160" height="26" as="geometry" />
        </mxCell>
        <mxCell id="sSFZgSlaCG-7Qj_c84nv-53" value="+ Departamento" style="text;align=left;verticalAlign=top;spacingLeft=4;spacingRight=4;overflow=hidden;rotatable=0;points=[[0,0.5],[1,0.5]];portConstraint=eastwest;rounded=0;shadow=0;html=0;" vertex="1" parent="sSFZgSlaCG-7Qj_c84nv-50">
          <mxGeometry y="78" width="160" height="26" as="geometry" />
        </mxCell>
        <mxCell id="sSFZgSlaCG-7Qj_c84nv-54" value="" style="line;html=1;strokeWidth=1;align=left;verticalAlign=middle;spacingTop=-1;spacingLeft=3;spacingRight=3;rotatable=0;labelPosition=right;points=[];portConstraint=eastwest;" vertex="1" parent="sSFZgSlaCG-7Qj_c84nv-50">
          <mxGeometry y="104" width="160" height="12" as="geometry" />
        </mxCell>
        <mxCell id="sSFZgSlaCG-7Qj_c84nv-55" value="Departamento" style="swimlane;fontStyle=0;align=center;verticalAlign=top;childLayout=stackLayout;horizontal=1;startSize=26;horizontalStack=0;resizeParent=1;resizeLast=0;collapsible=1;marginBottom=0;rounded=0;shadow=0;strokeWidth=1;" vertex="1" parent="WIyWlLk6GJQsqaUBKTNV-1">
          <mxGeometry x="2120" y="120" width="160" height="170" as="geometry">
            <mxRectangle x="340" y="380" width="170" height="26" as="alternateBounds" />
          </mxGeometry>
        </mxCell>
        <mxCell id="sSFZgSlaCG-7Qj_c84nv-56" value="+ Identificador:int" style="text;align=left;verticalAlign=top;spacingLeft=4;spacingRight=4;overflow=hidden;rotatable=0;points=[[0,0.5],[1,0.5]];portConstraint=eastwest;" vertex="1" parent="sSFZgSlaCG-7Qj_c84nv-55">
          <mxGeometry y="26" width="160" height="26" as="geometry" />
        </mxCell>
        <mxCell id="sSFZgSlaCG-7Qj_c84nv-57" value="+ Nombre:string" style="text;align=left;verticalAlign=top;spacingLeft=4;spacingRight=4;overflow=hidden;rotatable=0;points=[[0,0.5],[1,0.5]];portConstraint=eastwest;rounded=0;shadow=0;html=0;" vertex="1" parent="sSFZgSlaCG-7Qj_c84nv-55">
          <mxGeometry y="52" width="160" height="26" as="geometry" />
        </mxCell>
        <mxCell id="sSFZgSlaCG-7Qj_c84nv-58" value="+ Pais" style="text;align=left;verticalAlign=top;spacingLeft=4;spacingRight=4;overflow=hidden;rotatable=0;points=[[0,0.5],[1,0.5]];portConstraint=eastwest;rounded=0;shadow=0;html=0;" vertex="1" parent="sSFZgSlaCG-7Qj_c84nv-55">
          <mxGeometry y="78" width="160" height="26" as="geometry" />
        </mxCell>
        <mxCell id="sSFZgSlaCG-7Qj_c84nv-59" value="" style="line;html=1;strokeWidth=1;align=left;verticalAlign=middle;spacingTop=-1;spacingLeft=3;spacingRight=3;rotatable=0;labelPosition=right;points=[];portConstraint=eastwest;" vertex="1" parent="sSFZgSlaCG-7Qj_c84nv-55">
          <mxGeometry y="104" width="160" height="12" as="geometry" />
        </mxCell>
        <mxCell id="sSFZgSlaCG-7Qj_c84nv-60" value="Pais" style="swimlane;fontStyle=0;align=center;verticalAlign=top;childLayout=stackLayout;horizontal=1;startSize=26;horizontalStack=0;resizeParent=1;resizeLast=0;collapsible=1;marginBottom=0;rounded=0;shadow=0;strokeWidth=1;" vertex="1" parent="WIyWlLk6GJQsqaUBKTNV-1">
          <mxGeometry x="2440" y="120" width="160" height="170" as="geometry">
            <mxRectangle x="340" y="380" width="170" height="26" as="alternateBounds" />
          </mxGeometry>
        </mxCell>
        <mxCell id="sSFZgSlaCG-7Qj_c84nv-61" value="+ Identificador:int" style="text;align=left;verticalAlign=top;spacingLeft=4;spacingRight=4;overflow=hidden;rotatable=0;points=[[0,0.5],[1,0.5]];portConstraint=eastwest;" vertex="1" parent="sSFZgSlaCG-7Qj_c84nv-60">
          <mxGeometry y="26" width="160" height="26" as="geometry" />
        </mxCell>
        <mxCell id="sSFZgSlaCG-7Qj_c84nv-62" value="+ Nombre:string" style="text;align=left;verticalAlign=top;spacingLeft=4;spacingRight=4;overflow=hidden;rotatable=0;points=[[0,0.5],[1,0.5]];portConstraint=eastwest;rounded=0;shadow=0;html=0;" vertex="1" parent="sSFZgSlaCG-7Qj_c84nv-60">
          <mxGeometry y="52" width="160" height="26" as="geometry" />
        </mxCell>
        <mxCell id="sSFZgSlaCG-7Qj_c84nv-64" value="" style="line;html=1;strokeWidth=1;align=left;verticalAlign=middle;spacingTop=-1;spacingLeft=3;spacingRight=3;rotatable=0;labelPosition=right;points=[];portConstraint=eastwest;" vertex="1" parent="sSFZgSlaCG-7Qj_c84nv-60">
          <mxGeometry y="78" width="160" height="12" as="geometry" />
        </mxCell>
        <mxCell id="sSFZgSlaCG-7Qj_c84nv-65" style="edgeStyle=orthogonalEdgeStyle;rounded=0;orthogonalLoop=1;jettySize=auto;html=1;entryX=1;entryY=0.5;entryDx=0;entryDy=0;exitX=0;exitY=0.5;exitDx=0;exitDy=0;endArrow=none;endFill=0;" edge="1" parent="WIyWlLk6GJQsqaUBKTNV-1" source="sSFZgSlaCG-7Qj_c84nv-62" target="sSFZgSlaCG-7Qj_c84nv-57">
          <mxGeometry relative="1" as="geometry">
            <Array as="points" />
          </mxGeometry>
        </mxCell>
        <mxCell id="sSFZgSlaCG-7Qj_c84nv-66" style="edgeStyle=orthogonalEdgeStyle;rounded=0;orthogonalLoop=1;jettySize=auto;html=1;entryX=1;entryY=0.5;entryDx=0;entryDy=0;endArrow=none;endFill=0;" edge="1" parent="WIyWlLk6GJQsqaUBKTNV-1" source="sSFZgSlaCG-7Qj_c84nv-58" target="sSFZgSlaCG-7Qj_c84nv-53">
          <mxGeometry relative="1" as="geometry" />
        </mxCell>
        <mxCell id="sSFZgSlaCG-7Qj_c84nv-68" style="edgeStyle=orthogonalEdgeStyle;rounded=0;orthogonalLoop=1;jettySize=auto;html=1;endArrow=none;endFill=0;" edge="1" parent="WIyWlLk6GJQsqaUBKTNV-1" target="sSFZgSlaCG-7Qj_c84nv-53">
          <mxGeometry relative="1" as="geometry">
            <mxPoint x="1600" y="490" as="sourcePoint" />
            <Array as="points">
              <mxPoint x="1700" y="490" />
              <mxPoint x="1700" y="211" />
            </Array>
          </mxGeometry>
        </mxCell>
        <mxCell id="sSFZgSlaCG-7Qj_c84nv-69" value="1" style="text;html=1;align=center;verticalAlign=middle;resizable=0;points=[];autosize=1;strokeColor=none;fillColor=none;" vertex="1" parent="WIyWlLk6GJQsqaUBKTNV-1">
          <mxGeometry x="2410" y="150" width="30" height="30" as="geometry" />
        </mxCell>
        <mxCell id="sSFZgSlaCG-7Qj_c84nv-70" value="1" style="text;html=1;align=center;verticalAlign=middle;resizable=0;points=[];autosize=1;strokeColor=none;fillColor=none;" vertex="1" parent="WIyWlLk6GJQsqaUBKTNV-1">
          <mxGeometry x="2090" y="180" width="30" height="30" as="geometry" />
        </mxCell>
        <mxCell id="sSFZgSlaCG-7Qj_c84nv-71" value="1" style="text;html=1;align=center;verticalAlign=middle;resizable=0;points=[];autosize=1;strokeColor=none;fillColor=none;" vertex="1" parent="WIyWlLk6GJQsqaUBKTNV-1">
          <mxGeometry x="1770" y="180" width="30" height="30" as="geometry" />
        </mxCell>
        <mxCell id="sSFZgSlaCG-7Qj_c84nv-72" value="1..*" style="text;html=1;align=center;verticalAlign=middle;resizable=0;points=[];autosize=1;strokeColor=none;fillColor=none;" vertex="1" parent="WIyWlLk6GJQsqaUBKTNV-1">
          <mxGeometry x="2280" y="187" width="40" height="30" as="geometry" />
        </mxCell>
        <mxCell id="sSFZgSlaCG-7Qj_c84nv-73" value="1..*" style="text;html=1;align=center;verticalAlign=middle;resizable=0;points=[];autosize=1;strokeColor=none;fillColor=none;" vertex="1" parent="WIyWlLk6GJQsqaUBKTNV-1">
          <mxGeometry x="1960" y="217" width="40" height="30" as="geometry" />
        </mxCell>
        <mxCell id="sSFZgSlaCG-7Qj_c84nv-74" value="1..*" style="text;html=1;align=center;verticalAlign=middle;resizable=0;points=[];autosize=1;strokeColor=none;fillColor=none;" vertex="1" parent="WIyWlLk6GJQsqaUBKTNV-1">
          <mxGeometry x="1610" y="460" width="40" height="30" as="geometry" />
        </mxCell>
        <mxCell id="sSFZgSlaCG-7Qj_c84nv-75" value="HorarioLaboral" style="swimlane;fontStyle=0;align=center;verticalAlign=top;childLayout=stackLayout;horizontal=1;startSize=26;horizontalStack=0;resizeParent=1;resizeLast=0;collapsible=1;marginBottom=0;rounded=0;shadow=0;strokeWidth=1;" vertex="1" parent="WIyWlLk6GJQsqaUBKTNV-1">
          <mxGeometry x="1840" y="516" width="160" height="170" as="geometry">
            <mxRectangle x="340" y="380" width="170" height="26" as="alternateBounds" />
          </mxGeometry>
        </mxCell>
        <mxCell id="sSFZgSlaCG-7Qj_c84nv-76" value="+ Identificador:int" style="text;align=left;verticalAlign=top;spacingLeft=4;spacingRight=4;overflow=hidden;rotatable=0;points=[[0,0.5],[1,0.5]];portConstraint=eastwest;" vertex="1" parent="sSFZgSlaCG-7Qj_c84nv-75">
          <mxGeometry y="26" width="160" height="26" as="geometry" />
        </mxCell>
        <mxCell id="sSFZgSlaCG-7Qj_c84nv-77" value="+ HoraInicio:time" style="text;align=left;verticalAlign=top;spacingLeft=4;spacingRight=4;overflow=hidden;rotatable=0;points=[[0,0.5],[1,0.5]];portConstraint=eastwest;rounded=0;shadow=0;html=0;" vertex="1" parent="sSFZgSlaCG-7Qj_c84nv-75">
          <mxGeometry y="52" width="160" height="26" as="geometry" />
        </mxCell>
        <mxCell id="sSFZgSlaCG-7Qj_c84nv-78" value="+ HoraFin:time" style="text;align=left;verticalAlign=top;spacingLeft=4;spacingRight=4;overflow=hidden;rotatable=0;points=[[0,0.5],[1,0.5]];portConstraint=eastwest;rounded=0;shadow=0;html=0;" vertex="1" parent="sSFZgSlaCG-7Qj_c84nv-75">
          <mxGeometry y="78" width="160" height="26" as="geometry" />
        </mxCell>
        <mxCell id="sSFZgSlaCG-7Qj_c84nv-79" value="" style="line;html=1;strokeWidth=1;align=left;verticalAlign=middle;spacingTop=-1;spacingLeft=3;spacingRight=3;rotatable=0;labelPosition=right;points=[];portConstraint=eastwest;" vertex="1" parent="sSFZgSlaCG-7Qj_c84nv-75">
          <mxGeometry y="104" width="160" height="12" as="geometry" />
        </mxCell>
        <mxCell id="sSFZgSlaCG-7Qj_c84nv-80" style="edgeStyle=orthogonalEdgeStyle;rounded=0;orthogonalLoop=1;jettySize=auto;html=1;entryX=0;entryY=0.5;entryDx=0;entryDy=0;endArrow=none;endFill=0;" edge="1" parent="WIyWlLk6GJQsqaUBKTNV-1" source="sSFZgSlaCG-7Qj_c84nv-42" target="sSFZgSlaCG-7Qj_c84nv-78">
          <mxGeometry relative="1" as="geometry" />
        </mxCell>
        <mxCell id="sSFZgSlaCG-7Qj_c84nv-81" value="1" style="text;html=1;align=center;verticalAlign=middle;resizable=0;points=[];autosize=1;strokeColor=none;fillColor=none;" vertex="1" parent="WIyWlLk6GJQsqaUBKTNV-1">
          <mxGeometry x="1810" y="610" width="30" height="30" as="geometry" />
        </mxCell>
        <mxCell id="sSFZgSlaCG-7Qj_c84nv-82" value="1..*" style="text;html=1;align=center;verticalAlign=middle;resizable=0;points=[];autosize=1;strokeColor=none;fillColor=none;" vertex="1" parent="WIyWlLk6GJQsqaUBKTNV-1">
          <mxGeometry x="1600" y="580" width="40" height="30" as="geometry" />
        </mxCell>
        <mxCell id="sSFZgSlaCG-7Qj_c84nv-84" value="Trabajador" style="swimlane;fontStyle=0;align=center;verticalAlign=top;childLayout=stackLayout;horizontal=1;startSize=26;horizontalStack=0;resizeParent=1;resizeLast=0;collapsible=1;marginBottom=0;rounded=0;shadow=0;strokeWidth=1;" vertex="1" parent="WIyWlLk6GJQsqaUBKTNV-1">
          <mxGeometry x="640" y="400" width="160" height="200" as="geometry">
            <mxRectangle x="770" y="120" width="160" height="26" as="alternateBounds" />
          </mxGeometry>
        </mxCell>
        <mxCell id="sSFZgSlaCG-7Qj_c84nv-85" value="+ Identificador:int" style="text;align=left;verticalAlign=top;spacingLeft=4;spacingRight=4;overflow=hidden;rotatable=0;points=[[0,0.5],[1,0.5]];portConstraint=eastwest;" vertex="1" parent="sSFZgSlaCG-7Qj_c84nv-84">
          <mxGeometry y="26" width="160" height="26" as="geometry" />
        </mxCell>
        <mxCell id="sSFZgSlaCG-7Qj_c84nv-86" value="+ NombreCompleto:string" style="text;align=left;verticalAlign=top;spacingLeft=4;spacingRight=4;overflow=hidden;rotatable=0;points=[[0,0.5],[1,0.5]];portConstraint=eastwest;rounded=0;shadow=0;html=0;" vertex="1" parent="sSFZgSlaCG-7Qj_c84nv-84">
          <mxGeometry y="52" width="160" height="26" as="geometry" />
        </mxCell>
        <mxCell id="sSFZgSlaCG-7Qj_c84nv-87" value="+ NumeroIdentificacio:string" style="text;align=left;verticalAlign=top;spacingLeft=4;spacingRight=4;overflow=hidden;rotatable=0;points=[[0,0.5],[1,0.5]];portConstraint=eastwest;rounded=0;shadow=0;html=0;" vertex="1" parent="sSFZgSlaCG-7Qj_c84nv-84">
          <mxGeometry y="78" width="160" height="26" as="geometry" />
        </mxCell>
        <mxCell id="sSFZgSlaCG-7Qj_c84nv-88" value="+ Usuario:string" style="text;align=left;verticalAlign=top;spacingLeft=4;spacingRight=4;overflow=hidden;rotatable=0;points=[[0,0.5],[1,0.5]];portConstraint=eastwest;rounded=0;shadow=0;html=0;" vertex="1" parent="sSFZgSlaCG-7Qj_c84nv-84">
          <mxGeometry y="104" width="160" height="26" as="geometry" />
        </mxCell>
        <mxCell id="sSFZgSlaCG-7Qj_c84nv-89" value="" style="line;html=1;strokeWidth=1;align=left;verticalAlign=middle;spacingTop=-1;spacingLeft=3;spacingRight=3;rotatable=0;labelPosition=right;points=[];portConstraint=eastwest;" vertex="1" parent="sSFZgSlaCG-7Qj_c84nv-84">
          <mxGeometry y="130" width="160" height="10" as="geometry" />
        </mxCell>
        <mxCell id="sSFZgSlaCG-7Qj_c84nv-92" value="Administrador" style="swimlane;fontStyle=0;align=center;verticalAlign=top;childLayout=stackLayout;horizontal=1;startSize=26;horizontalStack=0;resizeParent=1;resizeLast=0;collapsible=1;marginBottom=0;rounded=0;shadow=0;strokeWidth=1;" vertex="1" parent="WIyWlLk6GJQsqaUBKTNV-1">
          <mxGeometry x="640" y="640" width="160" height="200" as="geometry">
            <mxRectangle x="770" y="120" width="160" height="26" as="alternateBounds" />
          </mxGeometry>
        </mxCell>
        <mxCell id="sSFZgSlaCG-7Qj_c84nv-93" value="+ Identificador:int" style="text;align=left;verticalAlign=top;spacingLeft=4;spacingRight=4;overflow=hidden;rotatable=0;points=[[0,0.5],[1,0.5]];portConstraint=eastwest;" vertex="1" parent="sSFZgSlaCG-7Qj_c84nv-92">
          <mxGeometry y="26" width="160" height="26" as="geometry" />
        </mxCell>
        <mxCell id="sSFZgSlaCG-7Qj_c84nv-94" value="+ NombreCompleto:string" style="text;align=left;verticalAlign=top;spacingLeft=4;spacingRight=4;overflow=hidden;rotatable=0;points=[[0,0.5],[1,0.5]];portConstraint=eastwest;rounded=0;shadow=0;html=0;" vertex="1" parent="sSFZgSlaCG-7Qj_c84nv-92">
          <mxGeometry y="52" width="160" height="26" as="geometry" />
        </mxCell>
        <mxCell id="sSFZgSlaCG-7Qj_c84nv-95" value="+ NumeroIdentificacio:string" style="text;align=left;verticalAlign=top;spacingLeft=4;spacingRight=4;overflow=hidden;rotatable=0;points=[[0,0.5],[1,0.5]];portConstraint=eastwest;rounded=0;shadow=0;html=0;" vertex="1" parent="sSFZgSlaCG-7Qj_c84nv-92">
          <mxGeometry y="78" width="160" height="26" as="geometry" />
        </mxCell>
        <mxCell id="sSFZgSlaCG-7Qj_c84nv-96" value="+ Usuario:string" style="text;align=left;verticalAlign=top;spacingLeft=4;spacingRight=4;overflow=hidden;rotatable=0;points=[[0,0.5],[1,0.5]];portConstraint=eastwest;rounded=0;shadow=0;html=0;" vertex="1" parent="sSFZgSlaCG-7Qj_c84nv-92">
          <mxGeometry y="104" width="160" height="26" as="geometry" />
        </mxCell>
        <mxCell id="sSFZgSlaCG-7Qj_c84nv-97" value="" style="line;html=1;strokeWidth=1;align=left;verticalAlign=middle;spacingTop=-1;spacingLeft=3;spacingRight=3;rotatable=0;labelPosition=right;points=[];portConstraint=eastwest;" vertex="1" parent="sSFZgSlaCG-7Qj_c84nv-92">
          <mxGeometry y="130" width="160" height="10" as="geometry" />
        </mxCell>
        <mxCell id="sSFZgSlaCG-7Qj_c84nv-98" value="TipoIdentificacion" style="swimlane;fontStyle=0;align=center;verticalAlign=top;childLayout=stackLayout;horizontal=1;startSize=26;horizontalStack=0;resizeParent=1;resizeLast=0;collapsible=1;marginBottom=0;rounded=0;shadow=0;strokeWidth=1;" vertex="1" parent="WIyWlLk6GJQsqaUBKTNV-1">
          <mxGeometry x="641.28" y="880" width="160" height="130" as="geometry">
            <mxRectangle x="770" y="120" width="160" height="26" as="alternateBounds" />
          </mxGeometry>
        </mxCell>
        <mxCell id="sSFZgSlaCG-7Qj_c84nv-99" value="+ Identificador:int" style="text;align=left;verticalAlign=top;spacingLeft=4;spacingRight=4;overflow=hidden;rotatable=0;points=[[0,0.5],[1,0.5]];portConstraint=eastwest;" vertex="1" parent="sSFZgSlaCG-7Qj_c84nv-98">
          <mxGeometry y="26" width="160" height="26" as="geometry" />
        </mxCell>
        <mxCell id="sSFZgSlaCG-7Qj_c84nv-100" value="+ Nombre:string" style="text;align=left;verticalAlign=top;spacingLeft=4;spacingRight=4;overflow=hidden;rotatable=0;points=[[0,0.5],[1,0.5]];portConstraint=eastwest;rounded=0;shadow=0;html=0;" vertex="1" parent="sSFZgSlaCG-7Qj_c84nv-98">
          <mxGeometry y="52" width="160" height="26" as="geometry" />
        </mxCell>
        <mxCell id="sSFZgSlaCG-7Qj_c84nv-103" value="" style="line;html=1;strokeWidth=1;align=left;verticalAlign=middle;spacingTop=-1;spacingLeft=3;spacingRight=3;rotatable=0;labelPosition=right;points=[];portConstraint=eastwest;" vertex="1" parent="sSFZgSlaCG-7Qj_c84nv-98">
          <mxGeometry y="78" width="160" height="10" as="geometry" />
        </mxCell>
        <mxCell id="sSFZgSlaCG-7Qj_c84nv-104" value="SpaOnline" style="swimlane;fontStyle=0;align=center;verticalAlign=top;childLayout=stackLayout;horizontal=1;startSize=26;horizontalStack=0;resizeParent=1;resizeLast=0;collapsible=1;marginBottom=0;rounded=0;shadow=0;strokeWidth=1;" vertex="1" parent="WIyWlLk6GJQsqaUBKTNV-1">
          <mxGeometry x="1040" y="480" width="160" height="216" as="geometry">
            <mxRectangle x="550" y="140" width="160" height="26" as="alternateBounds" />
          </mxGeometry>
        </mxCell>
        <mxCell id="sSFZgSlaCG-7Qj_c84nv-105" value="+ Identificador:int" style="text;align=left;verticalAlign=top;spacingLeft=4;spacingRight=4;overflow=hidden;rotatable=0;points=[[0,0.5],[1,0.5]];portConstraint=eastwest;" vertex="1" parent="sSFZgSlaCG-7Qj_c84nv-104">
          <mxGeometry y="26" width="160" height="26" as="geometry" />
        </mxCell>
        <mxCell id="sSFZgSlaCG-7Qj_c84nv-106" value="+ Nombre:string" style="text;align=left;verticalAlign=top;spacingLeft=4;spacingRight=4;overflow=hidden;rotatable=0;points=[[0,0.5],[1,0.5]];portConstraint=eastwest;rounded=0;shadow=0;html=0;" vertex="1" parent="sSFZgSlaCG-7Qj_c84nv-104">
          <mxGeometry y="52" width="160" height="26" as="geometry" />
        </mxCell>
        <mxCell id="sSFZgSlaCG-7Qj_c84nv-111" value="+ TipoIdentificacion" style="text;align=left;verticalAlign=top;spacingLeft=4;spacingRight=4;overflow=hidden;rotatable=0;points=[[0,0.5],[1,0.5]];portConstraint=eastwest;rounded=0;shadow=0;html=0;" vertex="1" parent="sSFZgSlaCG-7Qj_c84nv-104">
          <mxGeometry y="78" width="160" height="26" as="geometry" />
        </mxCell>
        <mxCell id="sSFZgSlaCG-7Qj_c84nv-112" value="+ Administrador" style="text;align=left;verticalAlign=top;spacingLeft=4;spacingRight=4;overflow=hidden;rotatable=0;points=[[0,0.5],[1,0.5]];portConstraint=eastwest;rounded=0;shadow=0;html=0;" vertex="1" parent="sSFZgSlaCG-7Qj_c84nv-104">
          <mxGeometry y="104" width="160" height="26" as="geometry" />
        </mxCell>
        <mxCell id="sSFZgSlaCG-7Qj_c84nv-107" value="+ Trabajador" style="text;align=left;verticalAlign=top;spacingLeft=4;spacingRight=4;overflow=hidden;rotatable=0;points=[[0,0.5],[1,0.5]];portConstraint=eastwest;rounded=0;shadow=0;html=0;" vertex="1" parent="sSFZgSlaCG-7Qj_c84nv-104">
          <mxGeometry y="130" width="160" height="26" as="geometry" />
        </mxCell>
        <mxCell id="sSFZgSlaCG-7Qj_c84nv-108" value="" style="line;html=1;strokeWidth=1;align=left;verticalAlign=middle;spacingTop=-1;spacingLeft=3;spacingRight=3;rotatable=0;labelPosition=right;points=[];portConstraint=eastwest;" vertex="1" parent="sSFZgSlaCG-7Qj_c84nv-104">
          <mxGeometry y="156" width="160" height="8" as="geometry" />
        </mxCell>
        <mxCell id="sSFZgSlaCG-7Qj_c84nv-113" style="edgeStyle=orthogonalEdgeStyle;rounded=0;orthogonalLoop=1;jettySize=auto;html=1;entryX=0;entryY=0.5;entryDx=0;entryDy=0;endArrow=none;endFill=0;" edge="1" parent="WIyWlLk6GJQsqaUBKTNV-1" source="sSFZgSlaCG-7Qj_c84nv-87" target="sSFZgSlaCG-7Qj_c84nv-105">
          <mxGeometry relative="1" as="geometry" />
        </mxCell>
        <mxCell id="sSFZgSlaCG-7Qj_c84nv-114" value="0..*" style="text;html=1;align=center;verticalAlign=middle;resizable=0;points=[];autosize=1;strokeColor=none;fillColor=none;" vertex="1" parent="WIyWlLk6GJQsqaUBKTNV-1">
          <mxGeometry x="801.28" y="460" width="40" height="30" as="geometry" />
        </mxCell>
        <mxCell id="sSFZgSlaCG-7Qj_c84nv-115" value="1" style="text;html=1;align=center;verticalAlign=middle;resizable=0;points=[];autosize=1;strokeColor=none;fillColor=none;" vertex="1" parent="WIyWlLk6GJQsqaUBKTNV-1">
          <mxGeometry x="1010" y="519" width="30" height="30" as="geometry" />
        </mxCell>
        <mxCell id="sSFZgSlaCG-7Qj_c84nv-116" style="edgeStyle=orthogonalEdgeStyle;rounded=0;orthogonalLoop=1;jettySize=auto;html=1;entryX=0;entryY=0.5;entryDx=0;entryDy=0;endArrow=none;endFill=0;" edge="1" parent="WIyWlLk6GJQsqaUBKTNV-1" source="sSFZgSlaCG-7Qj_c84nv-95" target="sSFZgSlaCG-7Qj_c84nv-111">
          <mxGeometry relative="1" as="geometry" />
        </mxCell>
        <mxCell id="sSFZgSlaCG-7Qj_c84nv-117" value="0..*" style="text;html=1;align=center;verticalAlign=middle;resizable=0;points=[];autosize=1;strokeColor=none;fillColor=none;" vertex="1" parent="WIyWlLk6GJQsqaUBKTNV-1">
          <mxGeometry x="801.28" y="700" width="40" height="30" as="geometry" />
        </mxCell>
        <mxCell id="sSFZgSlaCG-7Qj_c84nv-119" value="1" style="text;html=1;align=center;verticalAlign=middle;resizable=0;points=[];autosize=1;strokeColor=none;fillColor=none;" vertex="1" parent="WIyWlLk6GJQsqaUBKTNV-1">
          <mxGeometry x="1010" y="573" width="30" height="30" as="geometry" />
        </mxCell>
        <mxCell id="sSFZgSlaCG-7Qj_c84nv-120" style="edgeStyle=orthogonalEdgeStyle;rounded=0;orthogonalLoop=1;jettySize=auto;html=1;entryX=0;entryY=0.5;entryDx=0;entryDy=0;endArrow=none;endFill=0;" edge="1" parent="WIyWlLk6GJQsqaUBKTNV-1" source="sSFZgSlaCG-7Qj_c84nv-100" target="sSFZgSlaCG-7Qj_c84nv-107">
          <mxGeometry relative="1" as="geometry">
            <Array as="points">
              <mxPoint x="970" y="945" />
              <mxPoint x="970" y="623" />
            </Array>
          </mxGeometry>
        </mxCell>
        <mxCell id="sSFZgSlaCG-7Qj_c84nv-121" value="1..*" style="text;html=1;align=center;verticalAlign=middle;resizable=0;points=[];autosize=1;strokeColor=none;fillColor=none;" vertex="1" parent="WIyWlLk6GJQsqaUBKTNV-1">
          <mxGeometry x="1005" y="630" width="40" height="30" as="geometry" />
        </mxCell>
        <mxCell id="sSFZgSlaCG-7Qj_c84nv-122" value="1" style="text;html=1;align=center;verticalAlign=middle;resizable=0;points=[];autosize=1;strokeColor=none;fillColor=none;" vertex="1" parent="WIyWlLk6GJQsqaUBKTNV-1">
          <mxGeometry x="806.28" y="910" width="30" height="30" as="geometry" />
        </mxCell>
        <mxCell id="sSFZgSlaCG-7Qj_c84nv-123" style="edgeStyle=orthogonalEdgeStyle;rounded=0;orthogonalLoop=1;jettySize=auto;html=1;entryX=0.017;entryY=0.127;entryDx=0;entryDy=0;entryPerimeter=0;endArrow=none;endFill=0;" edge="1" parent="WIyWlLk6GJQsqaUBKTNV-1" source="sSFZgSlaCG-7Qj_c84nv-111" target="sSFZgSlaCG-7Qj_c84nv-40">
          <mxGeometry relative="1" as="geometry" />
        </mxCell>
        <mxCell id="sSFZgSlaCG-7Qj_c84nv-124" value="1" style="text;html=1;align=center;verticalAlign=middle;resizable=0;points=[];autosize=1;strokeColor=none;fillColor=none;" vertex="1" parent="WIyWlLk6GJQsqaUBKTNV-1">
          <mxGeometry x="1200" y="570" width="30" height="30" as="geometry" />
        </mxCell>
        <mxCell id="sSFZgSlaCG-7Qj_c84nv-125" value="1..*" style="text;html=1;align=center;verticalAlign=middle;resizable=0;points=[];autosize=1;strokeColor=none;fillColor=none;" vertex="1" parent="WIyWlLk6GJQsqaUBKTNV-1">
          <mxGeometry x="1400" y="540" width="40" height="30" as="geometry" />
        </mxCell>
        <mxCell id="sSFZgSlaCG-7Qj_c84nv-265" style="edgeStyle=orthogonalEdgeStyle;rounded=0;orthogonalLoop=1;jettySize=auto;html=1;entryX=0.538;entryY=0.004;entryDx=0;entryDy=0;entryPerimeter=0;endArrow=none;endFill=0;" edge="1" parent="WIyWlLk6GJQsqaUBKTNV-1" source="sSFZgSlaCG-7Qj_c84nv-126" target="sSFZgSlaCG-7Qj_c84nv-146">
          <mxGeometry relative="1" as="geometry">
            <mxPoint x="1510" y="1340" as="targetPoint" />
            <Array as="points">
              <mxPoint x="1525" y="1255" />
              <mxPoint x="1526" y="1255" />
            </Array>
          </mxGeometry>
        </mxCell>
        <mxCell id="sSFZgSlaCG-7Qj_c84nv-126" value="CitaReserva" style="swimlane;fontStyle=0;align=center;verticalAlign=top;childLayout=stackLayout;horizontal=1;startSize=26;horizontalStack=0;resizeParent=1;resizeLast=0;collapsible=1;marginBottom=0;rounded=0;shadow=0;strokeWidth=1;" vertex="1" parent="WIyWlLk6GJQsqaUBKTNV-1">
          <mxGeometry x="1440" y="880" width="170" height="270" as="geometry">
            <mxRectangle x="340" y="380" width="170" height="26" as="alternateBounds" />
          </mxGeometry>
        </mxCell>
        <mxCell id="sSFZgSlaCG-7Qj_c84nv-127" value="+ Identificador:int" style="text;align=left;verticalAlign=top;spacingLeft=4;spacingRight=4;overflow=hidden;rotatable=0;points=[[0,0.5],[1,0.5]];portConstraint=eastwest;" vertex="1" parent="sSFZgSlaCG-7Qj_c84nv-126">
          <mxGeometry y="26" width="170" height="26" as="geometry" />
        </mxCell>
        <mxCell id="sSFZgSlaCG-7Qj_c84nv-128" value="+ Fecha:date" style="text;align=left;verticalAlign=top;spacingLeft=4;spacingRight=4;overflow=hidden;rotatable=0;points=[[0,0.5],[1,0.5]];portConstraint=eastwest;rounded=0;shadow=0;html=0;" vertex="1" parent="sSFZgSlaCG-7Qj_c84nv-126">
          <mxGeometry y="52" width="170" height="26" as="geometry" />
        </mxCell>
        <mxCell id="sSFZgSlaCG-7Qj_c84nv-129" value="+ Hora:time" style="text;align=left;verticalAlign=top;spacingLeft=4;spacingRight=4;overflow=hidden;rotatable=0;points=[[0,0.5],[1,0.5]];portConstraint=eastwest;rounded=0;shadow=0;html=0;" vertex="1" parent="sSFZgSlaCG-7Qj_c84nv-126">
          <mxGeometry y="78" width="170" height="26" as="geometry" />
        </mxCell>
        <mxCell id="sSFZgSlaCG-7Qj_c84nv-130" value="+ EstadodelaReserva:boolean" style="text;align=left;verticalAlign=top;spacingLeft=4;spacingRight=4;overflow=hidden;rotatable=0;points=[[0,0.5],[1,0.5]];portConstraint=eastwest;rounded=0;shadow=0;html=0;" vertex="1" parent="sSFZgSlaCG-7Qj_c84nv-126">
          <mxGeometry y="104" width="170" height="26" as="geometry" />
        </mxCell>
        <mxCell id="sSFZgSlaCG-7Qj_c84nv-131" value="+ Sucursal" style="text;align=left;verticalAlign=top;spacingLeft=4;spacingRight=4;overflow=hidden;rotatable=0;points=[[0,0.5],[1,0.5]];portConstraint=eastwest;rounded=0;shadow=0;html=0;" vertex="1" parent="sSFZgSlaCG-7Qj_c84nv-126">
          <mxGeometry y="130" width="170" height="26" as="geometry" />
        </mxCell>
        <mxCell id="sSFZgSlaCG-7Qj_c84nv-132" value="+ CitaReservaServicio" style="text;align=left;verticalAlign=top;spacingLeft=4;spacingRight=4;overflow=hidden;rotatable=0;points=[[0,0.5],[1,0.5]];portConstraint=eastwest;rounded=0;shadow=0;html=0;" vertex="1" parent="sSFZgSlaCG-7Qj_c84nv-126">
          <mxGeometry y="156" width="170" height="26" as="geometry" />
        </mxCell>
        <mxCell id="sSFZgSlaCG-7Qj_c84nv-133" value="+ Consentimiento" style="text;align=left;verticalAlign=top;spacingLeft=4;spacingRight=4;overflow=hidden;rotatable=0;points=[[0,0.5],[1,0.5]];portConstraint=eastwest;rounded=0;shadow=0;html=0;" vertex="1" parent="sSFZgSlaCG-7Qj_c84nv-126">
          <mxGeometry y="182" width="170" height="26" as="geometry" />
        </mxCell>
        <mxCell id="sSFZgSlaCG-7Qj_c84nv-134" value="+ Cliente" style="text;align=left;verticalAlign=top;spacingLeft=4;spacingRight=4;overflow=hidden;rotatable=0;points=[[0,0.5],[1,0.5]];portConstraint=eastwest;rounded=0;shadow=0;html=0;" vertex="1" parent="sSFZgSlaCG-7Qj_c84nv-126">
          <mxGeometry y="208" width="170" height="26" as="geometry" />
        </mxCell>
        <mxCell id="sSFZgSlaCG-7Qj_c84nv-135" value="" style="line;html=1;strokeWidth=1;align=left;verticalAlign=middle;spacingTop=-1;spacingLeft=3;spacingRight=3;rotatable=0;labelPosition=right;points=[];portConstraint=eastwest;" vertex="1" parent="sSFZgSlaCG-7Qj_c84nv-126">
          <mxGeometry y="234" width="170" height="12" as="geometry" />
        </mxCell>
        <mxCell id="sSFZgSlaCG-7Qj_c84nv-136" value="Cliente" style="swimlane;fontStyle=0;align=center;verticalAlign=top;childLayout=stackLayout;horizontal=1;startSize=26;horizontalStack=0;resizeParent=1;resizeLast=0;collapsible=1;marginBottom=0;rounded=0;shadow=0;strokeWidth=1;" vertex="1" parent="WIyWlLk6GJQsqaUBKTNV-1">
          <mxGeometry x="610" y="1120" width="190" height="270" as="geometry">
            <mxRectangle x="340" y="380" width="170" height="26" as="alternateBounds" />
          </mxGeometry>
        </mxCell>
        <mxCell id="sSFZgSlaCG-7Qj_c84nv-137" value="+ Identificador:int" style="text;align=left;verticalAlign=top;spacingLeft=4;spacingRight=4;overflow=hidden;rotatable=0;points=[[0,0.5],[1,0.5]];portConstraint=eastwest;" vertex="1" parent="sSFZgSlaCG-7Qj_c84nv-136">
          <mxGeometry y="26" width="190" height="26" as="geometry" />
        </mxCell>
        <mxCell id="sSFZgSlaCG-7Qj_c84nv-138" value="+ NombreCompleto:string" style="text;align=left;verticalAlign=top;spacingLeft=4;spacingRight=4;overflow=hidden;rotatable=0;points=[[0,0.5],[1,0.5]];portConstraint=eastwest;rounded=0;shadow=0;html=0;" vertex="1" parent="sSFZgSlaCG-7Qj_c84nv-136">
          <mxGeometry y="52" width="190" height="26" as="geometry" />
        </mxCell>
        <mxCell id="sSFZgSlaCG-7Qj_c84nv-139" value="+ DocumentoIdentificacion:string&#xa;" style="text;align=left;verticalAlign=top;spacingLeft=4;spacingRight=4;overflow=hidden;rotatable=0;points=[[0,0.5],[1,0.5]];portConstraint=eastwest;rounded=0;shadow=0;html=0;" vertex="1" parent="sSFZgSlaCG-7Qj_c84nv-136">
          <mxGeometry y="78" width="190" height="26" as="geometry" />
        </mxCell>
        <mxCell id="sSFZgSlaCG-7Qj_c84nv-140" value="+ Telefono:string" style="text;align=left;verticalAlign=top;spacingLeft=4;spacingRight=4;overflow=hidden;rotatable=0;points=[[0,0.5],[1,0.5]];portConstraint=eastwest;rounded=0;shadow=0;html=0;" vertex="1" parent="sSFZgSlaCG-7Qj_c84nv-136">
          <mxGeometry y="104" width="190" height="26" as="geometry" />
        </mxCell>
        <mxCell id="sSFZgSlaCG-7Qj_c84nv-141" value="+ Correo:string" style="text;align=left;verticalAlign=top;spacingLeft=4;spacingRight=4;overflow=hidden;rotatable=0;points=[[0,0.5],[1,0.5]];portConstraint=eastwest;rounded=0;shadow=0;html=0;" vertex="1" parent="sSFZgSlaCG-7Qj_c84nv-136">
          <mxGeometry y="130" width="190" height="26" as="geometry" />
        </mxCell>
        <mxCell id="sSFZgSlaCG-7Qj_c84nv-142" value="+ Direccion:string" style="text;align=left;verticalAlign=top;spacingLeft=4;spacingRight=4;overflow=hidden;rotatable=0;points=[[0,0.5],[1,0.5]];portConstraint=eastwest;rounded=0;shadow=0;html=0;" vertex="1" parent="sSFZgSlaCG-7Qj_c84nv-136">
          <mxGeometry y="156" width="190" height="26" as="geometry" />
        </mxCell>
        <mxCell id="sSFZgSlaCG-7Qj_c84nv-145" value="" style="line;html=1;strokeWidth=1;align=left;verticalAlign=middle;spacingTop=-1;spacingLeft=3;spacingRight=3;rotatable=0;labelPosition=right;points=[];portConstraint=eastwest;" vertex="1" parent="sSFZgSlaCG-7Qj_c84nv-136">
          <mxGeometry y="182" width="190" height="12" as="geometry" />
        </mxCell>
        <mxCell id="sSFZgSlaCG-7Qj_c84nv-146" value="CitaReservaServicio" style="swimlane;fontStyle=0;align=center;verticalAlign=top;childLayout=stackLayout;horizontal=1;startSize=26;horizontalStack=0;resizeParent=1;resizeLast=0;collapsible=1;marginBottom=0;rounded=0;shadow=0;strokeWidth=1;" vertex="1" parent="WIyWlLk6GJQsqaUBKTNV-1">
          <mxGeometry x="1440" y="1360" width="160" height="160" as="geometry">
            <mxRectangle x="340" y="380" width="170" height="26" as="alternateBounds" />
          </mxGeometry>
        </mxCell>
        <mxCell id="sSFZgSlaCG-7Qj_c84nv-147" value="+ Identificador:int" style="text;align=left;verticalAlign=top;spacingLeft=4;spacingRight=4;overflow=hidden;rotatable=0;points=[[0,0.5],[1,0.5]];portConstraint=eastwest;" vertex="1" parent="sSFZgSlaCG-7Qj_c84nv-146">
          <mxGeometry y="26" width="160" height="26" as="geometry" />
        </mxCell>
        <mxCell id="sSFZgSlaCG-7Qj_c84nv-149" value="+ Servicio" style="text;align=left;verticalAlign=top;spacingLeft=4;spacingRight=4;overflow=hidden;rotatable=0;points=[[0,0.5],[1,0.5]];portConstraint=eastwest;rounded=0;shadow=0;html=0;" vertex="1" parent="sSFZgSlaCG-7Qj_c84nv-146">
          <mxGeometry y="52" width="160" height="26" as="geometry" />
        </mxCell>
        <mxCell id="sSFZgSlaCG-7Qj_c84nv-150" value="+ EstadodelaReserva" style="text;align=left;verticalAlign=top;spacingLeft=4;spacingRight=4;overflow=hidden;rotatable=0;points=[[0,0.5],[1,0.5]];portConstraint=eastwest;rounded=0;shadow=0;html=0;" vertex="1" parent="sSFZgSlaCG-7Qj_c84nv-146">
          <mxGeometry y="78" width="160" height="26" as="geometry" />
        </mxCell>
        <mxCell id="sSFZgSlaCG-7Qj_c84nv-155" value="" style="line;html=1;strokeWidth=1;align=left;verticalAlign=middle;spacingTop=-1;spacingLeft=3;spacingRight=3;rotatable=0;labelPosition=right;points=[];portConstraint=eastwest;" vertex="1" parent="sSFZgSlaCG-7Qj_c84nv-146">
          <mxGeometry y="104" width="160" height="12" as="geometry" />
        </mxCell>
        <mxCell id="sSFZgSlaCG-7Qj_c84nv-156" value="Consentimiento" style="swimlane;fontStyle=0;align=center;verticalAlign=top;childLayout=stackLayout;horizontal=1;startSize=26;horizontalStack=0;resizeParent=1;resizeLast=0;collapsible=1;marginBottom=0;rounded=0;shadow=0;strokeWidth=1;" vertex="1" parent="WIyWlLk6GJQsqaUBKTNV-1">
          <mxGeometry x="2080" y="720" width="190" height="190" as="geometry">
            <mxRectangle x="340" y="380" width="170" height="26" as="alternateBounds" />
          </mxGeometry>
        </mxCell>
        <mxCell id="sSFZgSlaCG-7Qj_c84nv-157" value="+ Identificador:int" style="text;align=left;verticalAlign=top;spacingLeft=4;spacingRight=4;overflow=hidden;rotatable=0;points=[[0,0.5],[1,0.5]];portConstraint=eastwest;" vertex="1" parent="sSFZgSlaCG-7Qj_c84nv-156">
          <mxGeometry y="26" width="190" height="26" as="geometry" />
        </mxCell>
        <mxCell id="sSFZgSlaCG-7Qj_c84nv-158" value="+ NombreCompleto:string" style="text;align=left;verticalAlign=top;spacingLeft=4;spacingRight=4;overflow=hidden;rotatable=0;points=[[0,0.5],[1,0.5]];portConstraint=eastwest;rounded=0;shadow=0;html=0;" vertex="1" parent="sSFZgSlaCG-7Qj_c84nv-156">
          <mxGeometry y="52" width="190" height="26" as="geometry" />
        </mxCell>
        <mxCell id="sSFZgSlaCG-7Qj_c84nv-159" value="+ DocumentoIDentificacion:string" style="text;align=left;verticalAlign=top;spacingLeft=4;spacingRight=4;overflow=hidden;rotatable=0;points=[[0,0.5],[1,0.5]];portConstraint=eastwest;rounded=0;shadow=0;html=0;" vertex="1" parent="sSFZgSlaCG-7Qj_c84nv-156">
          <mxGeometry y="78" width="190" height="26" as="geometry" />
        </mxCell>
        <mxCell id="sSFZgSlaCG-7Qj_c84nv-160" value="+ Autorizacion:boolean" style="text;align=left;verticalAlign=top;spacingLeft=4;spacingRight=4;overflow=hidden;rotatable=0;points=[[0,0.5],[1,0.5]];portConstraint=eastwest;rounded=0;shadow=0;html=0;" vertex="1" parent="sSFZgSlaCG-7Qj_c84nv-156">
          <mxGeometry y="104" width="190" height="26" as="geometry" />
        </mxCell>
        <mxCell id="sSFZgSlaCG-7Qj_c84nv-165" value="" style="line;html=1;strokeWidth=1;align=left;verticalAlign=middle;spacingTop=-1;spacingLeft=3;spacingRight=3;rotatable=0;labelPosition=right;points=[];portConstraint=eastwest;" vertex="1" parent="sSFZgSlaCG-7Qj_c84nv-156">
          <mxGeometry y="130" width="190" height="12" as="geometry" />
        </mxCell>
        <mxCell id="sSFZgSlaCG-7Qj_c84nv-167" value="1" style="text;html=1;align=center;verticalAlign=middle;resizable=0;points=[];autosize=1;strokeColor=none;fillColor=none;" vertex="1" parent="WIyWlLk6GJQsqaUBKTNV-1">
          <mxGeometry x="1485" y="708" width="30" height="30" as="geometry" />
        </mxCell>
        <mxCell id="sSFZgSlaCG-7Qj_c84nv-168" value="0..*" style="text;html=1;align=center;verticalAlign=middle;resizable=0;points=[];autosize=1;strokeColor=none;fillColor=none;" vertex="1" parent="WIyWlLk6GJQsqaUBKTNV-1">
          <mxGeometry x="1520" y="850" width="40" height="30" as="geometry" />
        </mxCell>
        <mxCell id="sSFZgSlaCG-7Qj_c84nv-169" style="edgeStyle=orthogonalEdgeStyle;rounded=0;orthogonalLoop=1;jettySize=auto;html=1;endArrow=none;endFill=0;exitX=1;exitY=0.5;exitDx=0;exitDy=0;" edge="1" parent="WIyWlLk6GJQsqaUBKTNV-1" source="sSFZgSlaCG-7Qj_c84nv-128" target="sSFZgSlaCG-7Qj_c84nv-160">
          <mxGeometry relative="1" as="geometry">
            <Array as="points">
              <mxPoint x="1840" y="945" />
              <mxPoint x="1840" y="837" />
            </Array>
          </mxGeometry>
        </mxCell>
        <mxCell id="sSFZgSlaCG-7Qj_c84nv-170" value="1" style="text;html=1;align=center;verticalAlign=middle;resizable=0;points=[];autosize=1;strokeColor=none;fillColor=none;" vertex="1" parent="WIyWlLk6GJQsqaUBKTNV-1">
          <mxGeometry x="1600" y="950" width="30" height="30" as="geometry" />
        </mxCell>
        <mxCell id="sSFZgSlaCG-7Qj_c84nv-171" value="1" style="text;html=1;align=center;verticalAlign=middle;resizable=0;points=[];autosize=1;strokeColor=none;fillColor=none;" vertex="1" parent="WIyWlLk6GJQsqaUBKTNV-1">
          <mxGeometry x="2053" y="800" width="30" height="30" as="geometry" />
        </mxCell>
        <mxCell id="sSFZgSlaCG-7Qj_c84nv-172" style="edgeStyle=orthogonalEdgeStyle;rounded=0;orthogonalLoop=1;jettySize=auto;html=1;entryX=-0.002;entryY=1.269;entryDx=0;entryDy=0;entryPerimeter=0;endArrow=none;endFill=0;" edge="1" parent="WIyWlLk6GJQsqaUBKTNV-1" source="sSFZgSlaCG-7Qj_c84nv-139" target="sSFZgSlaCG-7Qj_c84nv-129">
          <mxGeometry relative="1" as="geometry" />
        </mxCell>
        <mxCell id="sSFZgSlaCG-7Qj_c84nv-173" value="1" style="text;html=1;align=center;verticalAlign=middle;resizable=0;points=[];autosize=1;strokeColor=none;fillColor=none;" vertex="1" parent="WIyWlLk6GJQsqaUBKTNV-1">
          <mxGeometry x="805" y="1208" width="30" height="30" as="geometry" />
        </mxCell>
        <mxCell id="sSFZgSlaCG-7Qj_c84nv-174" value="0..*" style="text;html=1;align=center;verticalAlign=middle;resizable=0;points=[];autosize=1;strokeColor=none;fillColor=none;" vertex="1" parent="WIyWlLk6GJQsqaUBKTNV-1">
          <mxGeometry x="1400" y="960" width="40" height="30" as="geometry" />
        </mxCell>
        <mxCell id="sSFZgSlaCG-7Qj_c84nv-176" value="1" style="text;html=1;align=center;verticalAlign=middle;resizable=0;points=[];autosize=1;strokeColor=none;fillColor=none;" vertex="1" parent="WIyWlLk6GJQsqaUBKTNV-1">
          <mxGeometry x="1475" y="1148" width="30" height="30" as="geometry" />
        </mxCell>
        <mxCell id="sSFZgSlaCG-7Qj_c84nv-177" value="0..*" style="text;html=1;align=center;verticalAlign=middle;resizable=0;points=[];autosize=1;strokeColor=none;fillColor=none;" vertex="1" parent="WIyWlLk6GJQsqaUBKTNV-1">
          <mxGeometry x="1530" y="1328" width="40" height="30" as="geometry" />
        </mxCell>
        <mxCell id="sSFZgSlaCG-7Qj_c84nv-186" style="edgeStyle=orthogonalEdgeStyle;rounded=0;orthogonalLoop=1;jettySize=auto;html=1;entryX=0.5;entryY=1;entryDx=0;entryDy=0;endArrow=none;endFill=0;" edge="1" parent="WIyWlLk6GJQsqaUBKTNV-1" source="sSFZgSlaCG-7Qj_c84nv-178" target="sSFZgSlaCG-7Qj_c84nv-146">
          <mxGeometry relative="1" as="geometry" />
        </mxCell>
        <mxCell id="sSFZgSlaCG-7Qj_c84nv-208" style="edgeStyle=orthogonalEdgeStyle;rounded=0;orthogonalLoop=1;jettySize=auto;html=1;entryX=0.5;entryY=0;entryDx=0;entryDy=0;endArrow=none;endFill=0;" edge="1" parent="WIyWlLk6GJQsqaUBKTNV-1" source="sSFZgSlaCG-7Qj_c84nv-178" target="sSFZgSlaCG-7Qj_c84nv-195">
          <mxGeometry relative="1" as="geometry" />
        </mxCell>
        <mxCell id="sSFZgSlaCG-7Qj_c84nv-178" value="Servicio" style="swimlane;fontStyle=0;align=center;verticalAlign=top;childLayout=stackLayout;horizontal=1;startSize=26;horizontalStack=0;resizeParent=1;resizeLast=0;collapsible=1;marginBottom=0;rounded=0;shadow=0;strokeWidth=1;" vertex="1" parent="WIyWlLk6GJQsqaUBKTNV-1">
          <mxGeometry x="1440" y="1680" width="160" height="200" as="geometry">
            <mxRectangle x="340" y="380" width="170" height="26" as="alternateBounds" />
          </mxGeometry>
        </mxCell>
        <mxCell id="sSFZgSlaCG-7Qj_c84nv-179" value="+ Identificador:int" style="text;align=left;verticalAlign=top;spacingLeft=4;spacingRight=4;overflow=hidden;rotatable=0;points=[[0,0.5],[1,0.5]];portConstraint=eastwest;" vertex="1" parent="sSFZgSlaCG-7Qj_c84nv-178">
          <mxGeometry y="26" width="160" height="26" as="geometry" />
        </mxCell>
        <mxCell id="sSFZgSlaCG-7Qj_c84nv-180" value="+ Nombre:string" style="text;align=left;verticalAlign=top;spacingLeft=4;spacingRight=4;overflow=hidden;rotatable=0;points=[[0,0.5],[1,0.5]];portConstraint=eastwest;rounded=0;shadow=0;html=0;" vertex="1" parent="sSFZgSlaCG-7Qj_c84nv-178">
          <mxGeometry y="52" width="160" height="26" as="geometry" />
        </mxCell>
        <mxCell id="sSFZgSlaCG-7Qj_c84nv-181" value="+ Precio:double" style="text;align=left;verticalAlign=top;spacingLeft=4;spacingRight=4;overflow=hidden;rotatable=0;points=[[0,0.5],[1,0.5]];portConstraint=eastwest;rounded=0;shadow=0;html=0;" vertex="1" parent="sSFZgSlaCG-7Qj_c84nv-178">
          <mxGeometry y="78" width="160" height="26" as="geometry" />
        </mxCell>
        <mxCell id="sSFZgSlaCG-7Qj_c84nv-182" value="+ TipoServicio" style="text;align=left;verticalAlign=top;spacingLeft=4;spacingRight=4;overflow=hidden;rotatable=0;points=[[0,0.5],[1,0.5]];portConstraint=eastwest;rounded=0;shadow=0;html=0;" vertex="1" parent="sSFZgSlaCG-7Qj_c84nv-178">
          <mxGeometry y="104" width="160" height="26" as="geometry" />
        </mxCell>
        <mxCell id="sSFZgSlaCG-7Qj_c84nv-185" value="" style="line;html=1;strokeWidth=1;align=left;verticalAlign=middle;spacingTop=-1;spacingLeft=3;spacingRight=3;rotatable=0;labelPosition=right;points=[];portConstraint=eastwest;" vertex="1" parent="sSFZgSlaCG-7Qj_c84nv-178">
          <mxGeometry y="130" width="160" height="12" as="geometry" />
        </mxCell>
        <mxCell id="sSFZgSlaCG-7Qj_c84nv-187" value="0..*" style="text;html=1;align=center;verticalAlign=middle;resizable=0;points=[];autosize=1;strokeColor=none;fillColor=none;" vertex="1" parent="WIyWlLk6GJQsqaUBKTNV-1">
          <mxGeometry x="1515" y="1520" width="40" height="30" as="geometry" />
        </mxCell>
        <mxCell id="sSFZgSlaCG-7Qj_c84nv-188" value="1" style="text;html=1;align=center;verticalAlign=middle;resizable=0;points=[];autosize=1;strokeColor=none;fillColor=none;" vertex="1" parent="WIyWlLk6GJQsqaUBKTNV-1">
          <mxGeometry x="1490" y="1650" width="30" height="30" as="geometry" />
        </mxCell>
        <mxCell id="sSFZgSlaCG-7Qj_c84nv-189" value="TipoServicio" style="swimlane;fontStyle=0;align=center;verticalAlign=top;childLayout=stackLayout;horizontal=1;startSize=26;horizontalStack=0;resizeParent=1;resizeLast=0;collapsible=1;marginBottom=0;rounded=0;shadow=0;strokeWidth=1;" vertex="1" parent="WIyWlLk6GJQsqaUBKTNV-1">
          <mxGeometry x="1081" y="1680" width="160" height="160" as="geometry">
            <mxRectangle x="340" y="380" width="170" height="26" as="alternateBounds" />
          </mxGeometry>
        </mxCell>
        <mxCell id="sSFZgSlaCG-7Qj_c84nv-190" value="+ Identificador:int" style="text;align=left;verticalAlign=top;spacingLeft=4;spacingRight=4;overflow=hidden;rotatable=0;points=[[0,0.5],[1,0.5]];portConstraint=eastwest;" vertex="1" parent="sSFZgSlaCG-7Qj_c84nv-189">
          <mxGeometry y="26" width="160" height="26" as="geometry" />
        </mxCell>
        <mxCell id="sSFZgSlaCG-7Qj_c84nv-191" value="+ Nombre:string" style="text;align=left;verticalAlign=top;spacingLeft=4;spacingRight=4;overflow=hidden;rotatable=0;points=[[0,0.5],[1,0.5]];portConstraint=eastwest;rounded=0;shadow=0;html=0;" vertex="1" parent="sSFZgSlaCG-7Qj_c84nv-189">
          <mxGeometry y="52" width="160" height="26" as="geometry" />
        </mxCell>
        <mxCell id="sSFZgSlaCG-7Qj_c84nv-192" value="+ Duracion:string" style="text;align=left;verticalAlign=top;spacingLeft=4;spacingRight=4;overflow=hidden;rotatable=0;points=[[0,0.5],[1,0.5]];portConstraint=eastwest;rounded=0;shadow=0;html=0;" vertex="1" parent="sSFZgSlaCG-7Qj_c84nv-189">
          <mxGeometry y="78" width="160" height="26" as="geometry" />
        </mxCell>
        <mxCell id="sSFZgSlaCG-7Qj_c84nv-194" value="" style="line;html=1;strokeWidth=1;align=left;verticalAlign=middle;spacingTop=-1;spacingLeft=3;spacingRight=3;rotatable=0;labelPosition=right;points=[];portConstraint=eastwest;" vertex="1" parent="sSFZgSlaCG-7Qj_c84nv-189">
          <mxGeometry y="104" width="160" height="12" as="geometry" />
        </mxCell>
        <mxCell id="sSFZgSlaCG-7Qj_c84nv-195" value="Oferta" style="swimlane;fontStyle=0;align=center;verticalAlign=top;childLayout=stackLayout;horizontal=1;startSize=26;horizontalStack=0;resizeParent=1;resizeLast=0;collapsible=1;marginBottom=0;rounded=0;shadow=0;strokeWidth=1;" vertex="1" parent="WIyWlLk6GJQsqaUBKTNV-1">
          <mxGeometry x="1440" y="2000" width="160" height="200" as="geometry">
            <mxRectangle x="340" y="380" width="170" height="26" as="alternateBounds" />
          </mxGeometry>
        </mxCell>
        <mxCell id="sSFZgSlaCG-7Qj_c84nv-196" value="+ Identificador:int" style="text;align=left;verticalAlign=top;spacingLeft=4;spacingRight=4;overflow=hidden;rotatable=0;points=[[0,0.5],[1,0.5]];portConstraint=eastwest;" vertex="1" parent="sSFZgSlaCG-7Qj_c84nv-195">
          <mxGeometry y="26" width="160" height="26" as="geometry" />
        </mxCell>
        <mxCell id="sSFZgSlaCG-7Qj_c84nv-197" value="+ Servicio" style="text;align=left;verticalAlign=top;spacingLeft=4;spacingRight=4;overflow=hidden;rotatable=0;points=[[0,0.5],[1,0.5]];portConstraint=eastwest;rounded=0;shadow=0;html=0;" vertex="1" parent="sSFZgSlaCG-7Qj_c84nv-195">
          <mxGeometry y="52" width="160" height="26" as="geometry" />
        </mxCell>
        <mxCell id="sSFZgSlaCG-7Qj_c84nv-198" value="+ Descuento:double" style="text;align=left;verticalAlign=top;spacingLeft=4;spacingRight=4;overflow=hidden;rotatable=0;points=[[0,0.5],[1,0.5]];portConstraint=eastwest;rounded=0;shadow=0;html=0;" vertex="1" parent="sSFZgSlaCG-7Qj_c84nv-195">
          <mxGeometry y="78" width="160" height="26" as="geometry" />
        </mxCell>
        <mxCell id="sSFZgSlaCG-7Qj_c84nv-199" value="+ FechaInicio:date" style="text;align=left;verticalAlign=top;spacingLeft=4;spacingRight=4;overflow=hidden;rotatable=0;points=[[0,0.5],[1,0.5]];portConstraint=eastwest;rounded=0;shadow=0;html=0;" vertex="1" parent="sSFZgSlaCG-7Qj_c84nv-195">
          <mxGeometry y="104" width="160" height="26" as="geometry" />
        </mxCell>
        <mxCell id="sSFZgSlaCG-7Qj_c84nv-201" value="+ FechaFin:date" style="text;align=left;verticalAlign=top;spacingLeft=4;spacingRight=4;overflow=hidden;rotatable=0;points=[[0,0.5],[1,0.5]];portConstraint=eastwest;rounded=0;shadow=0;html=0;" vertex="1" parent="sSFZgSlaCG-7Qj_c84nv-195">
          <mxGeometry y="130" width="160" height="26" as="geometry" />
        </mxCell>
        <mxCell id="sSFZgSlaCG-7Qj_c84nv-200" value="" style="line;html=1;strokeWidth=1;align=left;verticalAlign=middle;spacingTop=-1;spacingLeft=3;spacingRight=3;rotatable=0;labelPosition=right;points=[];portConstraint=eastwest;" vertex="1" parent="sSFZgSlaCG-7Qj_c84nv-195">
          <mxGeometry y="156" width="160" height="12" as="geometry" />
        </mxCell>
        <mxCell id="sSFZgSlaCG-7Qj_c84nv-202" style="edgeStyle=orthogonalEdgeStyle;rounded=0;orthogonalLoop=1;jettySize=auto;html=1;entryX=0;entryY=0.5;entryDx=0;entryDy=0;endArrow=none;endFill=0;" edge="1" parent="WIyWlLk6GJQsqaUBKTNV-1" source="sSFZgSlaCG-7Qj_c84nv-192" target="sSFZgSlaCG-7Qj_c84nv-181">
          <mxGeometry relative="1" as="geometry" />
        </mxCell>
        <mxCell id="sSFZgSlaCG-7Qj_c84nv-203" value="1" style="text;html=1;align=center;verticalAlign=middle;resizable=0;points=[];autosize=1;strokeColor=none;fillColor=none;" vertex="1" parent="WIyWlLk6GJQsqaUBKTNV-1">
          <mxGeometry x="1240" y="1765" width="30" height="30" as="geometry" />
        </mxCell>
        <mxCell id="sSFZgSlaCG-7Qj_c84nv-204" value="1..*" style="text;html=1;align=center;verticalAlign=middle;resizable=0;points=[];autosize=1;strokeColor=none;fillColor=none;" vertex="1" parent="WIyWlLk6GJQsqaUBKTNV-1">
          <mxGeometry x="1400" y="1738" width="40" height="30" as="geometry" />
        </mxCell>
        <mxCell id="sSFZgSlaCG-7Qj_c84nv-206" value="1" style="text;html=1;align=center;verticalAlign=middle;resizable=0;points=[];autosize=1;strokeColor=none;fillColor=none;" vertex="1" parent="WIyWlLk6GJQsqaUBKTNV-1">
          <mxGeometry x="1485" y="1880" width="30" height="30" as="geometry" />
        </mxCell>
        <mxCell id="sSFZgSlaCG-7Qj_c84nv-207" value="0..*" style="text;html=1;align=center;verticalAlign=middle;resizable=0;points=[];autosize=1;strokeColor=none;fillColor=none;" vertex="1" parent="WIyWlLk6GJQsqaUBKTNV-1">
          <mxGeometry x="1520" y="1970" width="40" height="30" as="geometry" />
        </mxCell>
        <mxCell id="sSFZgSlaCG-7Qj_c84nv-210" value="TipoNotificacion" style="swimlane;fontStyle=0;align=center;verticalAlign=top;childLayout=stackLayout;horizontal=1;startSize=26;horizontalStack=0;resizeParent=1;resizeLast=0;collapsible=1;marginBottom=0;rounded=0;shadow=0;strokeWidth=1;" vertex="1" parent="WIyWlLk6GJQsqaUBKTNV-1">
          <mxGeometry x="1880" y="2000" width="160" height="120" as="geometry">
            <mxRectangle x="340" y="380" width="170" height="26" as="alternateBounds" />
          </mxGeometry>
        </mxCell>
        <mxCell id="sSFZgSlaCG-7Qj_c84nv-211" value="+ Identificador:int" style="text;align=left;verticalAlign=top;spacingLeft=4;spacingRight=4;overflow=hidden;rotatable=0;points=[[0,0.5],[1,0.5]];portConstraint=eastwest;" vertex="1" parent="sSFZgSlaCG-7Qj_c84nv-210">
          <mxGeometry y="26" width="160" height="26" as="geometry" />
        </mxCell>
        <mxCell id="sSFZgSlaCG-7Qj_c84nv-212" value="+ Nombre:string" style="text;align=left;verticalAlign=top;spacingLeft=4;spacingRight=4;overflow=hidden;rotatable=0;points=[[0,0.5],[1,0.5]];portConstraint=eastwest;rounded=0;shadow=0;html=0;" vertex="1" parent="sSFZgSlaCG-7Qj_c84nv-210">
          <mxGeometry y="52" width="160" height="26" as="geometry" />
        </mxCell>
        <mxCell id="sSFZgSlaCG-7Qj_c84nv-216" value="" style="line;html=1;strokeWidth=1;align=left;verticalAlign=middle;spacingTop=-1;spacingLeft=3;spacingRight=3;rotatable=0;labelPosition=right;points=[];portConstraint=eastwest;" vertex="1" parent="sSFZgSlaCG-7Qj_c84nv-210">
          <mxGeometry y="78" width="160" height="12" as="geometry" />
        </mxCell>
        <mxCell id="sSFZgSlaCG-7Qj_c84nv-225" style="edgeStyle=orthogonalEdgeStyle;rounded=0;orthogonalLoop=1;jettySize=auto;html=1;entryX=0.5;entryY=0;entryDx=0;entryDy=0;endArrow=none;endFill=0;" edge="1" parent="WIyWlLk6GJQsqaUBKTNV-1" source="sSFZgSlaCG-7Qj_c84nv-218" target="sSFZgSlaCG-7Qj_c84nv-210">
          <mxGeometry relative="1" as="geometry" />
        </mxCell>
        <mxCell id="sSFZgSlaCG-7Qj_c84nv-218" value="Notificacion" style="swimlane;fontStyle=0;align=center;verticalAlign=top;childLayout=stackLayout;horizontal=1;startSize=26;horizontalStack=0;resizeParent=1;resizeLast=0;collapsible=1;marginBottom=0;rounded=0;shadow=0;strokeWidth=1;" vertex="1" parent="WIyWlLk6GJQsqaUBKTNV-1">
          <mxGeometry x="1880" y="1680" width="160" height="200" as="geometry">
            <mxRectangle x="340" y="380" width="170" height="26" as="alternateBounds" />
          </mxGeometry>
        </mxCell>
        <mxCell id="sSFZgSlaCG-7Qj_c84nv-219" value="+ Identificador:int" style="text;align=left;verticalAlign=top;spacingLeft=4;spacingRight=4;overflow=hidden;rotatable=0;points=[[0,0.5],[1,0.5]];portConstraint=eastwest;" vertex="1" parent="sSFZgSlaCG-7Qj_c84nv-218">
          <mxGeometry y="26" width="160" height="26" as="geometry" />
        </mxCell>
        <mxCell id="sSFZgSlaCG-7Qj_c84nv-220" value="+ TipoNotificacion" style="text;align=left;verticalAlign=top;spacingLeft=4;spacingRight=4;overflow=hidden;rotatable=0;points=[[0,0.5],[1,0.5]];portConstraint=eastwest;rounded=0;shadow=0;html=0;" vertex="1" parent="sSFZgSlaCG-7Qj_c84nv-218">
          <mxGeometry y="52" width="160" height="26" as="geometry" />
        </mxCell>
        <mxCell id="sSFZgSlaCG-7Qj_c84nv-221" value="+ Servicio" style="text;align=left;verticalAlign=top;spacingLeft=4;spacingRight=4;overflow=hidden;rotatable=0;points=[[0,0.5],[1,0.5]];portConstraint=eastwest;rounded=0;shadow=0;html=0;" vertex="1" parent="sSFZgSlaCG-7Qj_c84nv-218">
          <mxGeometry y="78" width="160" height="26" as="geometry" />
        </mxCell>
        <mxCell id="sSFZgSlaCG-7Qj_c84nv-222" value="+ Pago" style="text;align=left;verticalAlign=top;spacingLeft=4;spacingRight=4;overflow=hidden;rotatable=0;points=[[0,0.5],[1,0.5]];portConstraint=eastwest;rounded=0;shadow=0;html=0;" vertex="1" parent="sSFZgSlaCG-7Qj_c84nv-218">
          <mxGeometry y="104" width="160" height="26" as="geometry" />
        </mxCell>
        <mxCell id="sSFZgSlaCG-7Qj_c84nv-224" value="" style="line;html=1;strokeWidth=1;align=left;verticalAlign=middle;spacingTop=-1;spacingLeft=3;spacingRight=3;rotatable=0;labelPosition=right;points=[];portConstraint=eastwest;" vertex="1" parent="sSFZgSlaCG-7Qj_c84nv-218">
          <mxGeometry y="130" width="160" height="12" as="geometry" />
        </mxCell>
        <mxCell id="sSFZgSlaCG-7Qj_c84nv-226" value="1" style="text;html=1;align=center;verticalAlign=middle;resizable=0;points=[];autosize=1;strokeColor=none;fillColor=none;" vertex="1" parent="WIyWlLk6GJQsqaUBKTNV-1">
          <mxGeometry x="1930" y="1970" width="30" height="30" as="geometry" />
        </mxCell>
        <mxCell id="sSFZgSlaCG-7Qj_c84nv-227" value="1" style="text;html=1;align=center;verticalAlign=middle;resizable=0;points=[];autosize=1;strokeColor=none;fillColor=none;" vertex="1" parent="WIyWlLk6GJQsqaUBKTNV-1">
          <mxGeometry x="1960" y="1880" width="30" height="30" as="geometry" />
        </mxCell>
        <mxCell id="sSFZgSlaCG-7Qj_c84nv-228" style="edgeStyle=orthogonalEdgeStyle;rounded=0;orthogonalLoop=1;jettySize=auto;html=1;entryX=0;entryY=0.5;entryDx=0;entryDy=0;endArrow=none;endFill=0;" edge="1" parent="WIyWlLk6GJQsqaUBKTNV-1" source="sSFZgSlaCG-7Qj_c84nv-181" target="sSFZgSlaCG-7Qj_c84nv-221">
          <mxGeometry relative="1" as="geometry" />
        </mxCell>
        <mxCell id="sSFZgSlaCG-7Qj_c84nv-229" value="1" style="text;html=1;align=center;verticalAlign=middle;resizable=0;points=[];autosize=1;strokeColor=none;fillColor=none;" vertex="1" parent="WIyWlLk6GJQsqaUBKTNV-1">
          <mxGeometry x="1605" y="1738" width="30" height="30" as="geometry" />
        </mxCell>
        <mxCell id="sSFZgSlaCG-7Qj_c84nv-230" value="0..*" style="text;html=1;align=center;verticalAlign=middle;resizable=0;points=[];autosize=1;strokeColor=none;fillColor=none;" vertex="1" parent="WIyWlLk6GJQsqaUBKTNV-1">
          <mxGeometry x="1840" y="1768" width="40" height="30" as="geometry" />
        </mxCell>
        <mxCell id="sSFZgSlaCG-7Qj_c84nv-253" style="edgeStyle=orthogonalEdgeStyle;rounded=0;orthogonalLoop=1;jettySize=auto;html=1;entryX=0.5;entryY=0;entryDx=0;entryDy=0;endArrow=none;endFill=0;" edge="1" parent="WIyWlLk6GJQsqaUBKTNV-1" source="sSFZgSlaCG-7Qj_c84nv-231" target="sSFZgSlaCG-7Qj_c84nv-218">
          <mxGeometry relative="1" as="geometry" />
        </mxCell>
        <mxCell id="sSFZgSlaCG-7Qj_c84nv-231" value="Pago" style="swimlane;fontStyle=0;align=center;verticalAlign=top;childLayout=stackLayout;horizontal=1;startSize=26;horizontalStack=0;resizeParent=1;resizeLast=0;collapsible=1;marginBottom=0;rounded=0;shadow=0;strokeWidth=1;" vertex="1" parent="WIyWlLk6GJQsqaUBKTNV-1">
          <mxGeometry x="1880" y="1360" width="160" height="160" as="geometry">
            <mxRectangle x="340" y="380" width="170" height="26" as="alternateBounds" />
          </mxGeometry>
        </mxCell>
        <mxCell id="sSFZgSlaCG-7Qj_c84nv-232" value="+ Identificador:int" style="text;align=left;verticalAlign=top;spacingLeft=4;spacingRight=4;overflow=hidden;rotatable=0;points=[[0,0.5],[1,0.5]];portConstraint=eastwest;" vertex="1" parent="sSFZgSlaCG-7Qj_c84nv-231">
          <mxGeometry y="26" width="160" height="26" as="geometry" />
        </mxCell>
        <mxCell id="sSFZgSlaCG-7Qj_c84nv-233" value="+ Nombre:string" style="text;align=left;verticalAlign=top;spacingLeft=4;spacingRight=4;overflow=hidden;rotatable=0;points=[[0,0.5],[1,0.5]];portConstraint=eastwest;rounded=0;shadow=0;html=0;" vertex="1" parent="sSFZgSlaCG-7Qj_c84nv-231">
          <mxGeometry y="52" width="160" height="26" as="geometry" />
        </mxCell>
        <mxCell id="sSFZgSlaCG-7Qj_c84nv-261" value="+ Factura" style="text;align=left;verticalAlign=top;spacingLeft=4;spacingRight=4;overflow=hidden;rotatable=0;points=[[0,0.5],[1,0.5]];portConstraint=eastwest;rounded=0;shadow=0;html=0;" vertex="1" parent="sSFZgSlaCG-7Qj_c84nv-231">
          <mxGeometry y="78" width="160" height="26" as="geometry" />
        </mxCell>
        <mxCell id="sSFZgSlaCG-7Qj_c84nv-236" value="+ TipoPago" style="text;align=left;verticalAlign=top;spacingLeft=4;spacingRight=4;overflow=hidden;rotatable=0;points=[[0,0.5],[1,0.5]];portConstraint=eastwest;rounded=0;shadow=0;html=0;" vertex="1" parent="sSFZgSlaCG-7Qj_c84nv-231">
          <mxGeometry y="104" width="160" height="26" as="geometry" />
        </mxCell>
        <mxCell id="sSFZgSlaCG-7Qj_c84nv-237" value="" style="line;html=1;strokeWidth=1;align=left;verticalAlign=middle;spacingTop=-1;spacingLeft=3;spacingRight=3;rotatable=0;labelPosition=right;points=[];portConstraint=eastwest;" vertex="1" parent="sSFZgSlaCG-7Qj_c84nv-231">
          <mxGeometry y="130" width="160" height="12" as="geometry" />
        </mxCell>
        <mxCell id="sSFZgSlaCG-7Qj_c84nv-250" style="edgeStyle=orthogonalEdgeStyle;rounded=0;orthogonalLoop=1;jettySize=auto;html=1;entryX=0.5;entryY=0;entryDx=0;entryDy=0;endArrow=none;endFill=0;" edge="1" parent="WIyWlLk6GJQsqaUBKTNV-1" source="sSFZgSlaCG-7Qj_c84nv-238" target="sSFZgSlaCG-7Qj_c84nv-231">
          <mxGeometry relative="1" as="geometry" />
        </mxCell>
        <mxCell id="sSFZgSlaCG-7Qj_c84nv-238" value="Factura" style="swimlane;fontStyle=0;align=center;verticalAlign=top;childLayout=stackLayout;horizontal=1;startSize=26;horizontalStack=0;resizeParent=1;resizeLast=0;collapsible=1;marginBottom=0;rounded=0;shadow=0;strokeWidth=1;" vertex="1" parent="WIyWlLk6GJQsqaUBKTNV-1">
          <mxGeometry x="1879" y="967" width="160" height="210" as="geometry">
            <mxRectangle x="340" y="380" width="170" height="26" as="alternateBounds" />
          </mxGeometry>
        </mxCell>
        <mxCell id="sSFZgSlaCG-7Qj_c84nv-239" value="+ Identificador:int" style="text;align=left;verticalAlign=top;spacingLeft=4;spacingRight=4;overflow=hidden;rotatable=0;points=[[0,0.5],[1,0.5]];portConstraint=eastwest;" vertex="1" parent="sSFZgSlaCG-7Qj_c84nv-238">
          <mxGeometry y="26" width="160" height="26" as="geometry" />
        </mxCell>
        <mxCell id="sSFZgSlaCG-7Qj_c84nv-240" value="+ Nombre:string" style="text;align=left;verticalAlign=top;spacingLeft=4;spacingRight=4;overflow=hidden;rotatable=0;points=[[0,0.5],[1,0.5]];portConstraint=eastwest;rounded=0;shadow=0;html=0;" vertex="1" parent="sSFZgSlaCG-7Qj_c84nv-238">
          <mxGeometry y="52" width="160" height="26" as="geometry" />
        </mxCell>
        <mxCell id="sSFZgSlaCG-7Qj_c84nv-244" value="+ Fecha:date" style="text;align=left;verticalAlign=top;spacingLeft=4;spacingRight=4;overflow=hidden;rotatable=0;points=[[0,0.5],[1,0.5]];portConstraint=eastwest;rounded=0;shadow=0;html=0;" vertex="1" parent="sSFZgSlaCG-7Qj_c84nv-238">
          <mxGeometry y="78" width="160" height="26" as="geometry" />
        </mxCell>
        <mxCell id="sSFZgSlaCG-7Qj_c84nv-243" value="+ Valor:double" style="text;align=left;verticalAlign=top;spacingLeft=4;spacingRight=4;overflow=hidden;rotatable=0;points=[[0,0.5],[1,0.5]];portConstraint=eastwest;rounded=0;shadow=0;html=0;" vertex="1" parent="sSFZgSlaCG-7Qj_c84nv-238">
          <mxGeometry y="104" width="160" height="26" as="geometry" />
        </mxCell>
        <mxCell id="sSFZgSlaCG-7Qj_c84nv-245" value="+ CitaReserva" style="text;align=left;verticalAlign=top;spacingLeft=4;spacingRight=4;overflow=hidden;rotatable=0;points=[[0,0.5],[1,0.5]];portConstraint=eastwest;rounded=0;shadow=0;html=0;" vertex="1" parent="sSFZgSlaCG-7Qj_c84nv-238">
          <mxGeometry y="130" width="160" height="26" as="geometry" />
        </mxCell>
        <mxCell id="sSFZgSlaCG-7Qj_c84nv-241" value="+ Servicio" style="text;align=left;verticalAlign=top;spacingLeft=4;spacingRight=4;overflow=hidden;rotatable=0;points=[[0,0.5],[1,0.5]];portConstraint=eastwest;rounded=0;shadow=0;html=0;" vertex="1" parent="sSFZgSlaCG-7Qj_c84nv-238">
          <mxGeometry y="156" width="160" height="26" as="geometry" />
        </mxCell>
        <mxCell id="sSFZgSlaCG-7Qj_c84nv-242" value="" style="line;html=1;strokeWidth=1;align=left;verticalAlign=middle;spacingTop=-1;spacingLeft=3;spacingRight=3;rotatable=0;labelPosition=right;points=[];portConstraint=eastwest;" vertex="1" parent="sSFZgSlaCG-7Qj_c84nv-238">
          <mxGeometry y="182" width="160" height="12" as="geometry" />
        </mxCell>
        <mxCell id="sSFZgSlaCG-7Qj_c84nv-247" style="edgeStyle=orthogonalEdgeStyle;rounded=0;orthogonalLoop=1;jettySize=auto;html=1;entryX=-0.05;entryY=-0.115;entryDx=0;entryDy=0;entryPerimeter=0;endArrow=none;endFill=0;" edge="1" parent="WIyWlLk6GJQsqaUBKTNV-1" source="sSFZgSlaCG-7Qj_c84nv-126" target="sSFZgSlaCG-7Qj_c84nv-240">
          <mxGeometry relative="1" as="geometry" />
        </mxCell>
        <mxCell id="sSFZgSlaCG-7Qj_c84nv-248" value="1" style="text;html=1;align=center;verticalAlign=middle;resizable=0;points=[];autosize=1;strokeColor=none;fillColor=none;" vertex="1" parent="WIyWlLk6GJQsqaUBKTNV-1">
          <mxGeometry x="1600" y="1020" width="30" height="30" as="geometry" />
        </mxCell>
        <mxCell id="sSFZgSlaCG-7Qj_c84nv-249" value="1" style="text;html=1;align=center;verticalAlign=middle;resizable=0;points=[];autosize=1;strokeColor=none;fillColor=none;" vertex="1" parent="WIyWlLk6GJQsqaUBKTNV-1">
          <mxGeometry x="1845" y="980" width="30" height="30" as="geometry" />
        </mxCell>
        <mxCell id="sSFZgSlaCG-7Qj_c84nv-251" value="1" style="text;html=1;align=center;verticalAlign=middle;resizable=0;points=[];autosize=1;strokeColor=none;fillColor=none;" vertex="1" parent="WIyWlLk6GJQsqaUBKTNV-1">
          <mxGeometry x="1965" y="1328" width="30" height="30" as="geometry" />
        </mxCell>
        <mxCell id="sSFZgSlaCG-7Qj_c84nv-252" value="1" style="text;html=1;align=center;verticalAlign=middle;resizable=0;points=[];autosize=1;strokeColor=none;fillColor=none;" vertex="1" parent="WIyWlLk6GJQsqaUBKTNV-1">
          <mxGeometry x="1930" y="1178" width="30" height="30" as="geometry" />
        </mxCell>
        <mxCell id="sSFZgSlaCG-7Qj_c84nv-254" value="1" style="text;html=1;align=center;verticalAlign=middle;resizable=0;points=[];autosize=1;strokeColor=none;fillColor=none;" vertex="1" parent="WIyWlLk6GJQsqaUBKTNV-1">
          <mxGeometry x="1960" y="1650" width="30" height="30" as="geometry" />
        </mxCell>
        <mxCell id="sSFZgSlaCG-7Qj_c84nv-255" value="1" style="text;html=1;align=center;verticalAlign=middle;resizable=0;points=[];autosize=1;strokeColor=none;fillColor=none;" vertex="1" parent="WIyWlLk6GJQsqaUBKTNV-1">
          <mxGeometry x="1930" y="1520" width="30" height="30" as="geometry" />
        </mxCell>
        <mxCell id="sSFZgSlaCG-7Qj_c84nv-256" value="TipoPago" style="swimlane;fontStyle=0;align=center;verticalAlign=top;childLayout=stackLayout;horizontal=1;startSize=26;horizontalStack=0;resizeParent=1;resizeLast=0;collapsible=1;marginBottom=0;rounded=0;shadow=0;strokeWidth=1;" vertex="1" parent="WIyWlLk6GJQsqaUBKTNV-1">
          <mxGeometry x="2240" y="1360" width="160" height="160" as="geometry">
            <mxRectangle x="340" y="380" width="170" height="26" as="alternateBounds" />
          </mxGeometry>
        </mxCell>
        <mxCell id="sSFZgSlaCG-7Qj_c84nv-257" value="+ Identificador:int" style="text;align=left;verticalAlign=top;spacingLeft=4;spacingRight=4;overflow=hidden;rotatable=0;points=[[0,0.5],[1,0.5]];portConstraint=eastwest;" vertex="1" parent="sSFZgSlaCG-7Qj_c84nv-256">
          <mxGeometry y="26" width="160" height="26" as="geometry" />
        </mxCell>
        <mxCell id="sSFZgSlaCG-7Qj_c84nv-258" value="+ Nombre:string" style="text;align=left;verticalAlign=top;spacingLeft=4;spacingRight=4;overflow=hidden;rotatable=0;points=[[0,0.5],[1,0.5]];portConstraint=eastwest;rounded=0;shadow=0;html=0;" vertex="1" parent="sSFZgSlaCG-7Qj_c84nv-256">
          <mxGeometry y="52" width="160" height="26" as="geometry" />
        </mxCell>
        <mxCell id="sSFZgSlaCG-7Qj_c84nv-260" value="" style="line;html=1;strokeWidth=1;align=left;verticalAlign=middle;spacingTop=-1;spacingLeft=3;spacingRight=3;rotatable=0;labelPosition=right;points=[];portConstraint=eastwest;" vertex="1" parent="sSFZgSlaCG-7Qj_c84nv-256">
          <mxGeometry y="78" width="160" height="12" as="geometry" />
        </mxCell>
        <mxCell id="sSFZgSlaCG-7Qj_c84nv-262" style="edgeStyle=orthogonalEdgeStyle;rounded=0;orthogonalLoop=1;jettySize=auto;html=1;entryX=0.001;entryY=1.121;entryDx=0;entryDy=0;entryPerimeter=0;endArrow=none;endFill=0;" edge="1" parent="WIyWlLk6GJQsqaUBKTNV-1" source="sSFZgSlaCG-7Qj_c84nv-231" target="sSFZgSlaCG-7Qj_c84nv-258">
          <mxGeometry relative="1" as="geometry" />
        </mxCell>
        <mxCell id="sSFZgSlaCG-7Qj_c84nv-263" value="1" style="text;html=1;align=center;verticalAlign=middle;resizable=0;points=[];autosize=1;strokeColor=none;fillColor=none;" vertex="1" parent="WIyWlLk6GJQsqaUBKTNV-1">
          <mxGeometry x="2035" y="1438" width="30" height="30" as="geometry" />
        </mxCell>
        <mxCell id="sSFZgSlaCG-7Qj_c84nv-264" value="1..*" style="text;html=1;align=center;verticalAlign=middle;resizable=0;points=[];autosize=1;strokeColor=none;fillColor=none;" vertex="1" parent="WIyWlLk6GJQsqaUBKTNV-1">
          <mxGeometry x="2200" y="1408" width="40" height="30" as="geometry" />
        </mxCell>
      </root>
    </mxGraphModel>
  </diagram>
</mxfile>
